<!-- ========================================================================================== -->
<!-- Detailed Standard Map 																		-->
<!--   background (and quite nice) map bitmap by J. Fatula III 									-->
<!--   SVG by Zach DelProposto 																	-->
<!--   Tweaks by Will Oram																							-->
<!-- ========================================================================================== -->

<?xml version="1.0" encoding="utf-8"?>
<svg width="1160" height="970" xmlns="http://www.w3.org/2000/svg">
  <g class="mouseLayer">
    <path id="nth" d="M 495.563 265.093 L 489.532 271.118 L 487.522 287.184 L 482.496 314.296 L 486.516 318.313 L 484.506 325.342 L 477.47 330.362 L 481.49 340.404 L 495.563 350.445 L 491.542 358.478 L 490.537 365.507 L 492.548 371.532 L 493.553 376.553 L 507.626 384.586 L 502.6 398.644 L 500.589 414.71 L 487.522 411.698 L 467.418 410.694 L 445.303 413.706 L 435.251 420.735 L 431.23 431.781 L 431.23 439.814 L 436.257 459.896 L 440.277 471.946 L 439.272 473.954 L 423.189 468.934 L 418.163 485 L 433.241 488.012 L 429.22 496.046 L 428.215 499.058 L 436.257 501.066 L 435.251 506.087 L 420.173 505.083 L 415.147 509.099 L 413.137 505.083 L 388.007 513.116 L 384.991 508.095 L 387.002 503.074 L 378.96 496.046 L 395.043 485 L 397.054 471.946 L 390.017 457.888 L 376.95 452.867 L 382.981 433.789 L 366.898 387.598 L 363.882 357.474 L 380.971 343.416 L 380.971 328.354 L 362.877 319.317 L 364.887 315.3 L 368.908 311.284 L 370.919 309.275 L 371.924 298.23 L 404.09 272.122 L 425.199 262.081 L 483.501 258.064 L 491.542 256.056 Z"/>
    <path id="ska" d="M 498.579 379.565 L 508.631 384.586 L 514.662 374.544 L 531.75 372.536 L 535.771 372.536 L 545.823 363.499 L 548.839 363.499 L 549.844 375.549 L 541.802 390.611 L 549.844 393.623 L 549.844 402.66 L 569.948 408.685 L 571.958 399.648 L 563.917 365.507 L 562.912 358.478 L 555.875 353.458 L 554.87 343.416 L 560.901 334.379 L 557.886 326.346 L 554.87 325.342 L 546.828 333.375 L 539.792 333.375 L 518.683 351.449 L 512.652 352.453 L 507.626 355.466 L 501.594 353.458 L 495.563 350.445 L 490.537 358.478 L 490.537 367.516 L 493.553 375.549 Z"/>
    <path id="fin" d="M 692.582 74.306 L 687.556 75.311 L 684.541 83.344 L 685.546 89.369 L 703.64 101.418 L 710.676 107.443 L 715.702 120.497 L 716.707 134.555 L 717.712 169.7 L 731.785 175.725 L 732.79 186.77 L 711.681 210.87 L 694.593 227.94 L 686.551 249.027 L 690.572 275.135 L 691.577 301.242 L 709.671 313.292 L 710.676 325.342 L 713.692 325.342 L 721.733 318.313 L 750.884 309.275 L 781.04 301.242 L 795.113 275.135 L 804.159 267.101 L 808.18 247.019 L 807.175 233.965 L 805.165 216.894 L 801.144 206.853 L 792.097 197.816 L 789.081 191.791 L 783.05 163.675 L 772.998 138.571 L 775.009 116.48 L 772.998 111.46 L 767.972 104.431 L 760.936 93.385 L 764.957 83.344 L 761.941 73.302 L 757.92 61.253 L 755.91 60.248 L 745.858 60.248 L 735.806 62.257 L 733.795 65.269 L 732.79 74.306 L 732.79 81.335 L 724.749 84.348 L 710.676 86.356 L 703.64 83.344 L 697.608 77.319 Z"/>
    <path id="nwy" d="M 491.542 237.981 L 490.537 257.06 L 496.568 264.089 L 489.532 272.122 L 488.527 282.164 L 487.522 293.209 L 484.506 306.263 L 483.501 314.296 L 486.516 317.308 L 485.511 325.342 L 478.475 330.362 L 481.49 339.4 L 489.532 344.42 L 496.568 351.449 L 504.61 355.466 L 509.636 355.466 L 511.646 352.453 L 518.683 351.449 L 529.74 343.416 L 540.797 333.375 L 546.828 333.375 L 554.87 324.337 L 559.896 330.362 L 560.901 335.383 L 562.912 337.391 L 568.943 338.395 L 570.953 336.387 L 571.958 331.366 L 572.964 318.313 L 577.99 309.275 L 583.016 289.193 L 583.016 282.164 L 590.052 273.126 L 587.036 260.072 L 584.021 253.043 L 587.036 236.977 L 589.047 214.886 L 595.078 208.861 L 605.13 206.853 L 610.156 203.841 L 611.161 195.807 L 620.208 180.745 L 624.229 163.675 L 634.281 153.634 L 639.307 140.58 L 642.322 138.571 L 641.317 129.534 L 647.348 119.493 L 648.354 107.443 L 654.385 105.435 L 658.406 106.439 L 662.426 95.393 L 678.51 96.398 L 685.546 85.352 L 686.551 75.311 L 692.582 74.306 L 704.645 85.352 L 722.738 86.356 L 729.775 82.34 L 733.795 74.306 L 733.795 64.265 L 741.837 61.253 L 754.905 60.248 L 756.915 62.257 L 761.941 72.298 L 762.946 80.331 L 763.951 84.348 L 769.983 74.306 L 778.024 66.273 L 780.035 61.253 L 777.019 52.215 L 771.993 55.228 L 778.024 35.145 L 760.936 30.124 L 751.889 26.108 L 726.759 34.141 L 716.707 31.128 L 692.582 33.137 L 679.515 56.232 L 667.452 65.269 L 652.374 64.265 L 629.255 89.369 L 618.198 128.53 L 599.099 139.576 L 599.099 159.658 L 554.87 203.841 Z"/>
    <path id="swe" d="M 560.901 330.362 L 554.87 337.391 L 556.88 349.441 L 563.917 354.462 L 563.917 361.491 L 565.927 371.532 L 568.943 384.586 L 570.953 396.636 L 569.948 403.665 L 574.974 412.702 L 574.974 417.723 L 571.958 419.731 L 571.958 426.76 L 582.01 433.789 L 593.068 434.793 L 596.083 426.76 L 598.094 418.727 L 602.114 414.71 L 617.192 414.71 L 627.244 408.685 L 635.286 371.532 L 633.276 359.482 L 637.296 353.458 L 639.307 346.429 L 643.328 341.408 L 648.354 341.408 L 657.4 335.383 L 664.437 317.308 L 664.437 301.242 L 656.395 291.201 L 647.348 286.18 L 654.385 263.085 L 650.364 244.006 L 663.432 233.965 L 675.494 223.923 L 697.608 192.795 L 696.603 174.72 L 706.655 162.671 L 718.718 163.675 L 718.718 135.559 L 715.702 114.472 L 709.671 101.418 L 698.614 92.381 L 685.546 81.335 L 678.51 92.381 L 664.437 91.377 L 659.411 101.418 L 647.348 102.422 L 646.343 113.468 L 642.322 124.513 L 640.312 136.563 L 633.276 149.617 L 624.229 157.65 L 623.224 163.675 L 619.203 177.733 L 611.161 190.787 L 610.156 197.816 L 605.13 201.832 L 596.083 203.841 L 589.047 209.865 L 587.036 231.957 L 584.021 248.023 L 586.031 258.064 L 589.047 269.11 L 582.01 279.151 L 583.016 284.172 L 577.99 303.25 L 572.964 313.292 L 571.958 325.342 L 569.948 335.383 L 562.912 333.375 Z"/>
    <path id="bot" d="M 633.276 361.491 L 637.296 357.474 L 639.307 348.437 L 642.322 344.42 L 648.354 344.42 L 656.395 337.391 L 663.432 319.317 L 663.432 303.25 L 656.395 292.205 L 647.348 288.188 L 653.38 265.093 L 651.369 247.019 L 662.426 236.977 L 668.458 233.965 L 672.478 229.948 L 678.51 220.911 L 690.572 206.853 L 696.603 195.807 L 696.603 176.729 L 705.65 164.679 L 719.723 165.683 L 731.785 171.708 L 732.79 180.745 L 724.749 194.803 L 708.666 211.874 L 696.603 222.919 L 692.582 231.957 L 687.556 246.014 L 690.572 261.077 L 691.577 286.18 L 691.577 296.222 L 700.624 302.246 L 708.666 308.271 L 710.676 314.296 L 710.676 321.325 L 715.702 321.325 L 725.754 314.296 L 737.816 310.279 L 755.91 303.25 L 772.998 300.238 L 780.035 298.23 L 794.107 301.242 L 790.087 307.267 L 782.045 311.284 L 775.009 320.321 L 768.977 318.313 L 752.894 315.3 L 739.827 318.313 L 726.759 326.346 L 721.733 330.362 L 723.744 349.441 L 727.764 356.47 L 736.811 359.482 L 736.811 365.507 L 734.801 375.549 L 734.801 382.578 L 722.738 384.586 L 718.718 373.54 L 713.692 369.524 L 703.64 374.544 L 695.598 383.582 Z"/>
    <path id="stp" d="M 726.759 329.358 L 739.827 320.321 L 751.889 317.308 L 760.936 318.313 L 771.993 320.321 L 775.009 322.329 L 781.04 314.296 L 789.081 309.275 L 793.102 304.255 L 790.087 302.246 L 781.04 301.242 L 784.055 294.213 L 793.102 276.139 L 803.154 268.106 L 807.175 243.002 L 806.17 218.903 L 791.092 195.807 L 781.04 156.646 L 772.998 137.567 L 775.009 116.48 L 772.998 110.455 L 765.962 103.426 L 761.941 94.389 L 764.957 83.344 L 772.998 70.29 L 777.019 65.269 L 779.029 60.248 L 778.024 52.215 L 786.066 46.19 L 795.113 46.19 L 796.118 63.261 L 806.17 64.265 L 808.18 59.244 L 823.258 57.236 L 835.321 64.265 L 885.581 80.331 L 891.612 86.356 L 892.617 112.464 L 874.523 140.58 L 819.237 134.555 L 838.336 150.621 L 845.373 177.733 L 869.497 189.783 L 870.503 185.766 L 854.419 168.696 L 854.419 152.629 L 883.57 163.675 L 904.679 162.671 L 885.581 141.584 L 899.653 110.455 L 915.737 102.422 L 892.617 50.207 L 925.789 46.19 L 943.882 70.29 L 949.913 54.224 L 953.934 80.331 L 968.007 95.393 L 977.054 101.418 L 992.132 101.418 L 1003.189 106.439 L 1010.225 107.443 L 1046.412 132.547 L 1045.407 162.671 L 1051.438 179.741 L 1068.527 198.82 L 1067.522 216.894 L 1082.6 241.998 L 1085.615 258.064 L 1080.589 255.052 L 1048.423 260.072 L 1044.402 263.085 L 1027.314 273.126 L 1005.199 273.126 L 996.153 279.151 L 982.08 280.155 L 949.913 305.259 L 912.721 304.255 L 890.607 321.325 L 884.575 353.458 L 877.539 359.482 L 863.466 351.449 L 851.404 354.462 L 844.367 371.532 L 834.315 383.582 L 823.258 389.607 L 797.123 387.598 L 795.113 382.578 L 794.107 376.553 L 784.055 357.474 L 776.014 348.437 L 763.951 344.42 L 747.868 343.416 L 735.806 340.404 L 728.77 334.379 Z"/>
    <path id="bal" d="M 633.276 363.499 L 695.598 384.586 L 689.567 401.656 L 687.556 419.731 L 691.577 419.731 L 691.577 429.772 L 682.53 437.805 L 670.468 449.855 L 678.51 455.88 L 667.452 459.896 L 658.406 448.851 L 642.322 449.855 L 605.13 461.905 L 595.078 481.988 L 593.068 476.967 L 584.021 470.942 L 581.005 458.892 L 564.922 455.88 L 553.865 458.892 L 545.823 461.905 L 540.797 454.876 L 549.844 446.843 L 556.88 429.772 L 572.964 424.752 L 573.969 432.785 L 578.995 437.805 L 586.031 437.805 L 592.062 438.81 L 597.088 431.781 L 597.088 424.752 L 602.114 419.731 L 612.166 419.731 L 618.198 419.731 L 626.239 412.702 L 632.27 391.615 L 634.281 374.544 Z"/>
    <path id="lvn" d="M 726.759 329.358 L 730.78 337.391 L 745.858 343.416 L 758.925 344.42 L 768.977 344.42 L 782.045 352.453 L 787.071 362.495 L 794.107 374.544 L 797.123 379.565 L 797.123 384.586 L 799.133 387.598 L 790.087 412.702 L 793.102 421.739 L 787.071 455.88 L 789.081 470.942 L 778.024 474.959 L 774.003 473.954 L 759.931 492.029 L 747.868 498.054 L 730.78 487.008 L 721.733 476.967 L 724.749 457.888 L 723.744 443.83 L 720.728 442.826 L 708.666 442.826 L 699.619 423.747 L 692.582 419.731 L 688.562 419.731 L 689.567 400.652 L 695.598 384.586 L 703.64 375.549 L 712.686 372.536 L 719.723 375.549 L 720.728 381.573 L 723.744 387.598 L 728.77 387.598 L 734.801 385.59 L 733.795 375.549 L 735.806 366.511 L 734.801 361.491 L 726.759 358.478 L 723.744 351.449 L 723.744 340.404 L 721.733 332.371 Z"/>
    <path id="mos" d="M 1084.61 255.052 L 1086.62 271.118 L 1094.662 289.193 L 1099.688 317.308 L 1087.626 346.429 L 1085.615 359.482 L 1087.626 372.536 L 1082.6 385.59 L 1072.548 388.602 L 1058.475 417.723 L 1056.464 443.83 L 1061.49 458.892 L 1048.423 472.95 L 1037.366 488.012 L 1017.262 486.004 L 1006.205 492.029 L 1002.184 491.025 L 997.158 490.021 L 983.085 482.992 L 976.049 476.967 L 962.981 466.925 L 955.945 470.942 L 944.887 488.012 L 945.893 501.066 L 918.752 497.05 L 903.674 505.083 L 887.591 500.062 L 848.388 508.095 L 832.305 510.103 L 825.269 515.124 L 794.107 521.149 L 760.936 533.199 L 755.91 526.17 L 754.905 514.12 L 747.868 498.054 L 759.931 491.025 L 774.003 473.954 L 779.029 473.954 L 789.081 468.934 L 788.076 455.88 L 792.097 419.731 L 790.087 413.706 L 799.133 387.598 L 823.258 387.598 L 834.315 381.573 L 844.367 370.528 L 853.414 352.453 L 861.456 351.449 L 872.513 355.466 L 878.544 358.478 L 882.565 355.466 L 887.591 347.433 L 892.617 320.321 L 911.716 303.25 L 922.773 303.25 L 949.913 304.255 L 976.049 284.172 L 981.075 280.155 L 997.158 278.147 L 1007.21 272.122 L 1027.314 272.122 L 1044.402 266.097 L 1050.433 259.068 L 1060.485 258.064 Z"/>
    <path id="sev" d="M 1160 769.172 L 1145.927 770.176 L 1140.901 774.193 L 1132.86 768.168 L 1120.797 773.188 L 1113.761 769.172 L 1108.735 760.135 L 1102.704 761.139 L 1091.646 752.101 L 1088.631 746.077 L 1077.574 733.023 L 1073.553 717.961 L 1050.433 711.936 L 1021.283 694.865 L 1003.189 686.832 L 985.095 678.799 L 978.059 672.774 L 979.064 660.725 L 990.121 646.667 L 992.132 643.654 L 989.116 637.629 L 978.059 627.588 L 942.877 651.687 L 957.955 659.72 L 972.028 659.72 L 973.033 676.791 L 958.96 685.828 L 947.903 691.853 L 935.841 704.907 L 921.768 704.907 L 914.731 687.836 L 898.648 682.816 L 903.674 664.741 L 887.591 658.716 L 880.555 653.696 L 867.487 653.696 L 865.477 669.762 L 856.43 681.812 L 839.341 688.841 L 831.3 686.832 L 827.279 675.787 L 823.258 664.741 L 826.274 654.7 L 825.269 647.671 L 847.383 625.58 L 850.399 613.53 L 870.503 595.455 L 892.617 583.406 L 896.638 576.377 L 898.648 558.302 L 898.648 543.24 L 906.69 521.149 L 904.679 504.079 L 914.731 497.05 L 927.799 498.054 L 939.861 500.062 L 944.887 500.062 L 944.887 487.008 L 950.919 476.967 L 954.939 469.938 L 962.981 466.925 L 971.023 470.942 L 983.085 482.992 L 996.153 488.012 L 1006.205 491.025 L 1019.272 486.004 L 1038.371 487.008 L 1046.412 501.066 L 1048.423 514.12 L 1065.511 526.17 L 1072.548 526.17 L 1080.589 541.232 L 1082.6 555.29 L 1098.683 561.315 L 1120.797 573.364 L 1139.896 580.393 L 1153.969 595.455 L 1160 594.451 Z"/>
    <path id="ukr" d="M 759.931 533.199 L 758.925 549.265 L 757.92 553.282 L 755.91 567.34 L 758.925 572.36 L 764.957 576.377 L 768.977 580.393 L 781.04 583.406 L 782.045 590.435 L 786.066 600.476 L 788.076 607.505 L 790.087 617.547 L 799.133 616.542 L 806.17 619.555 L 808.18 625.58 L 811.196 631.604 L 815.217 638.633 L 823.258 648.675 L 825.269 648.675 L 833.31 640.642 L 847.383 625.58 L 849.393 615.538 L 856.43 606.501 L 864.471 599.472 L 884.575 588.426 L 891.612 584.41 L 895.633 577.381 L 897.643 550.269 L 898.648 541.232 L 906.69 519.141 L 905.685 502.07 L 895.633 503.074 L 890.607 500.062 L 877.539 501.066 L 852.409 507.091 L 850.399 508.095 L 840.347 507.091 L 826.274 514.12 L 814.211 515.124 L 792.097 522.153 L 787.071 521.149 Z"/>
    <path id="syr" d="M 1072.548 835.445 L 1053.449 843.478 L 1022.288 857.536 L 1012.236 884.648 L 1003.189 895.694 L 1000.173 910.756 L 1013.241 958.954 L 1013.241 970 L 1160 967.992 L 1157.99 836.449 L 1130.849 835.445 L 1119.792 838.458 L 1107.73 834.441 Z"/>
    <path id="arm" d="M 1061.49 755.114 L 1062.496 793.271 L 1056.464 797.288 L 1059.48 800.3 L 1054.454 807.329 L 1057.47 815.362 L 1063.501 818.375 L 1068.527 823.395 L 1071.542 833.437 L 1072.548 836.449 L 1096.672 835.445 L 1110.745 834.441 L 1120.797 837.453 L 1126.828 835.445 L 1143.917 834.441 L 1157.99 836.449 L 1160 836.449 L 1158.995 769.172 L 1148.943 770.176 L 1139.896 773.188 L 1131.854 768.168 L 1122.808 771.18 L 1120.797 772.184 L 1117.782 771.18 L 1113.761 769.172 L 1110.745 762.143 L 1108.735 760.135 L 1101.698 761.139 L 1099.688 754.11 L 1096.672 751.097 L 1089.636 748.085 L 1083.605 740.052 L 1076.568 732.019 Z"/>
    <path id="ank" d="M 890.607 784.234 L 893.622 793.271 L 898.648 810.342 L 901.664 829.42 L 899.653 850.507 L 908.7 854.524 L 920.763 845.487 L 937.851 834.441 L 947.903 832.433 L 956.95 837.453 L 970.017 835.445 L 980.069 831.429 L 1000.173 813.354 L 1011.231 802.308 L 1032.34 800.3 L 1046.412 800.3 L 1060.485 795.279 L 1062.496 793.271 L 1060.485 756.118 L 1008.215 764.151 L 963.986 752.101 L 930.815 756.118 L 908.7 767.164 L 896.638 782.226 Z"/>
    <path id="smy" d="M 817.227 845.487 L 805.165 848.499 L 815.217 861.553 L 802.149 863.561 L 803.154 878.623 L 813.206 883.644 L 829.289 892.681 L 831.3 901.718 L 830.295 915.776 L 850.399 917.785 L 864.471 914.772 L 877.539 926.822 L 896.638 925.818 L 901.664 910.756 L 948.908 925.818 L 974.038 913.768 L 982.08 898.706 L 992.132 905.735 L 1013.241 884.648 L 1022.288 860.549 L 1033.345 851.511 L 1044.402 846.491 L 1066.516 838.458 L 1071.542 832.433 L 1070.537 824.4 L 1062.496 816.366 L 1056.464 809.337 L 1053.449 805.321 L 1060.485 797.288 L 1050.433 797.288 L 1044.402 801.304 L 1029.324 801.304 L 1023.293 802.308 L 1012.236 803.313 L 1000.173 814.358 L 972.028 835.445 L 968.007 838.458 L 955.945 837.453 L 947.903 833.437 L 941.872 834.441 L 934.835 835.445 L 925.789 841.47 L 919.757 847.495 L 907.695 853.52 L 900.659 850.507 L 892.617 850.507 L 887.591 850.507 L 880.555 851.511 L 875.529 852.516 L 861.456 851.511 L 857.435 854.524 L 854.419 856.532 L 841.352 854.524 L 838.336 850.507 L 832.305 846.491 L 825.269 847.495 Z"/>
    <path id="con" d="M 838.336 775.197 L 830.295 776.201 L 822.253 777.205 L 820.243 777.205 L 815.217 778.209 L 799.133 785.238 L 798.128 788.25 L 803.154 794.275 L 805.165 800.3 L 804.159 804.317 L 797.123 814.358 L 793.102 815.362 L 798.128 817.371 L 807.175 818.375 L 800.139 832.433 L 798.128 837.453 L 800.139 843.478 L 806.17 848.499 L 817.227 847.495 L 833.31 846.491 L 839.341 851.511 L 851.404 855.528 L 860.451 851.511 L 867.487 851.511 L 873.518 852.516 L 879.549 853.52 L 889.601 851.511 L 892.617 849.503 L 900.659 850.507 L 900.659 830.424 L 903.674 826.408 L 902.669 815.362 L 897.643 805.321 L 893.622 793.271 L 892.617 785.238 L 875.529 787.246 L 854.419 789.255 Z"/>
    <path id="bul" d="M 742.842 731.014 L 737.816 736.035 L 730.78 734.027 L 728.77 725.994 L 721.733 736.035 L 724.749 746.077 L 733.795 755.114 L 733.795 760.135 L 725.754 759.13 L 721.733 761.139 L 722.738 769.172 L 732.79 782.226 L 733.795 789.255 L 729.775 792.267 L 725.754 797.288 L 724.749 801.304 L 730.78 804.317 L 743.847 804.317 L 749.879 796.284 L 760.936 795.279 L 763.951 795.279 L 771.993 804.317 L 772.998 817.371 L 772.998 823.395 L 790.087 813.354 L 796.118 816.366 L 802.149 803.313 L 805.165 794.275 L 799.133 786.242 L 815.217 778.209 L 823.258 777.205 L 830.295 777.205 L 837.331 776.201 L 828.284 766.159 L 829.289 751.097 L 837.331 739.048 L 828.284 726.998 L 817.227 729.006 L 806.17 728.002 L 802.149 723.985 L 791.092 733.023 L 779.029 738.043 L 766.967 738.043 L 761.941 737.039 L 752.894 736.035 Z"/>
    <path id="gre" d="M 698.614 813.354 L 689.567 835.445 L 676.499 849.503 L 700.624 879.627 L 694.593 889.669 L 711.681 921.801 L 731.785 934.855 L 742.842 923.809 L 748.873 914.772 L 744.853 906.739 L 752.894 893.685 L 756.915 894.689 L 771.993 887.66 L 775.009 876.615 L 749.879 856.532 L 739.827 837.453 L 757.92 838.458 L 771.993 821.387 L 771.993 808.333 L 764.957 796.284 L 750.884 796.284 L 743.847 803.313 L 731.785 804.317 L 714.697 810.342 Z"/>
    <path id="alb" d="M 680.52 773.188 L 673.484 774.193 L 666.447 768.168 L 659.411 781.221 L 656.395 785.238 L 663.432 788.25 L 649.359 795.279 L 650.364 807.329 L 664.437 803.313 L 662.426 827.412 L 679.515 848.499 L 690.572 834.441 L 699.619 814.358 L 690.572 809.337 L 686.551 799.296 L 686.551 791.263 L 685.546 784.234 L 685.546 776.201 Z"/>
    <path id="ser" d="M 669.463 708.923 L 680.52 711.936 L 689.567 708.923 L 702.634 707.919 L 707.66 712.94 L 719.723 713.944 L 729.775 726.998 L 720.728 735.031 L 722.738 743.064 L 727.764 748.085 L 733.795 756.118 L 732.79 759.13 L 724.749 758.126 L 722.738 761.139 L 729.775 776.201 L 736.811 789.255 L 732.79 792.267 L 726.759 794.275 L 721.733 798.292 L 729.775 805.321 L 721.733 808.333 L 709.671 812.35 L 699.619 814.358 L 690.572 809.337 L 686.551 801.304 L 686.551 794.275 L 685.546 784.234 L 682.53 777.205 L 680.52 774.193 L 666.447 755.114 L 658.406 746.077 L 665.442 733.023 L 664.437 716.956 Z"/>
    <path id="rum" d="M 789.081 616.542 L 798.128 616.542 L 809.185 624.576 L 811.196 629.596 L 813.206 638.633 L 824.263 645.662 L 827.279 655.704 L 822.253 663.737 L 824.263 666.749 L 826.274 672.774 L 830.295 683.82 L 833.31 687.836 L 840.347 686.832 L 856.43 681.812 L 860.451 689.845 L 853.414 699.886 L 841.352 709.927 L 842.357 732.019 L 837.331 739.048 L 832.305 733.023 L 827.279 728.002 L 811.196 729.006 L 802.149 724.99 L 788.076 734.027 L 781.04 740.052 L 751.889 736.035 L 744.853 730.01 L 740.832 730.01 L 736.811 736.035 L 732.79 734.027 L 728.77 726.998 L 720.728 714.948 L 730.78 694.865 L 741.837 689.845 L 750.884 689.845 L 765.962 688.841 L 782.045 691.853 L 793.102 680.807 L 793.102 666.749 L 789.081 665.745 L 787.071 658.716 L 776.014 654.7 L 777.019 643.654 L 785.061 632.609 Z"/>
    <path id="war" d="M 721.733 476.967 L 713.692 487.008 L 689.567 494.037 L 678.51 489.017 L 659.411 495.041 L 651.369 511.108 L 638.302 523.157 L 649.359 556.294 L 670.468 569.348 L 672.478 568.344 L 680.52 573.364 L 702.634 562.319 L 704.645 553.282 L 709.671 554.286 L 724.749 567.34 L 733.795 570.352 L 744.853 558.302 L 752.894 566.335 L 754.905 568.344 L 761.941 532.195 L 756.915 526.17 L 755.91 517.133 L 747.868 497.05 L 730.78 486.004 Z"/>
    <path id="gal" d="M 668.458 567.34 L 655.39 578.385 L 645.338 579.389 L 648.354 594.451 L 659.411 594.451 L 673.484 602.484 L 689.567 595.455 L 693.588 597.464 L 706.655 593.447 L 713.692 602.484 L 731.785 602.484 L 741.837 610.518 L 743.847 614.534 L 752.894 620.559 L 760.936 628.592 L 777.019 643.654 L 788.076 633.613 L 791.092 617.547 L 779.029 582.402 L 768.977 578.385 L 757.92 568.344 L 749.879 565.331 L 746.863 559.306 L 744.853 558.302 L 737.816 561.315 L 726.759 569.348 L 706.655 554.286 L 701.629 562.319 L 694.593 567.34 L 687.556 569.348 L 684.541 572.36 L 682.53 572.36"/>
    <path id="bud" d="M 622.218 654.7 L 625.234 675.787 L 637.296 684.824 L 650.364 688.841 L 652.374 698.882 L 667.452 712.94 L 670.468 708.923 L 674.489 709.927 L 703.64 708.923 L 708.666 713.944 L 714.697 717.961 L 722.738 712.94 L 728.77 701.894 L 736.811 691.853 L 749.879 689.845 L 757.92 691.853 L 768.977 688.841 L 783.05 691.853 L 794.107 682.816 L 794.107 666.749 L 790.087 665.745 L 789.081 657.712 L 776.014 652.691 L 777.019 642.65 L 763.951 631.604 L 756.915 625.58 L 751.889 617.547 L 742.842 612.526 L 732.79 603.489 L 713.692 600.476 L 709.671 595.455 L 691.577 596.46 L 679.515 598.468 L 674.489 601.48 L 673.484 606.501 L 662.426 609.513 L 648.354 632.609 L 639.307 636.625 Z"/>
    <path id="pru" d="M 596.083 481.988 L 599.099 473.954 L 605.13 461.905 L 633.276 451.863 L 646.343 448.851 L 658.406 448.851 L 665.442 454.876 L 668.458 458.892 L 677.504 455.88 L 670.468 449.855 L 684.541 433.789 L 690.572 429.772 L 691.577 422.743 L 693.588 419.731 L 699.619 422.743 L 709.671 441.822 L 722.738 444.834 L 724.749 459.896 L 720.728 477.971 L 715.702 485 L 691.577 492.029 L 675.494 490.021 L 659.411 495.041 L 652.374 511.108 L 637.296 524.161 L 599.099 516.128 Z"/>
    <path id="den" d="M 504.61 448.851 L 529.74 439.814 L 533.761 442.826 L 533.761 447.847 L 540.797 454.876 L 549.844 447.847 L 556.88 430.776 L 575.979 422.743 L 575.979 415.714 L 569.948 407.681 L 550.849 402.66 L 549.844 393.623 L 541.802 390.611 L 544.818 382.578 L 549.844 374.544 L 547.834 362.495 L 535.771 372.536 L 515.667 374.544 L 509.636 381.573 L 505.615 391.615 L 502.6 402.66 L 501.594 409.689 L 501.594 414.71 L 507.626 424.752 L 505.615 431.781 Z"/>
    <path id="hel" d="M 501.594 414.71 L 480.485 409.689 L 462.392 410.694 L 446.309 413.706 L 440.277 416.718 L 434.246 423.747 L 431.23 431.781 L 433.241 445.839 L 437.262 462.909 L 440.277 471.946 L 456.36 461.905 L 473.449 459.896 L 478.475 469.938 L 481.49 459.896 L 490.537 458.892 L 497.574 465.921 L 507.626 455.88 L 504.61 448.851 L 505.615 430.776 L 507.626 422.743 Z"/>
    <path id="ber" d="M 545.823 461.905 L 556.88 456.884 L 565.927 454.876 L 581.005 458.892 L 582.01 464.917 L 586.031 470.942 L 592.062 474.959 L 595.078 478.975 L 597.088 493.033 L 599.099 503.074 L 600.104 517.133 L 590.052 524.161 L 572.964 526.17 L 564.922 530.186 L 553.865 532.195 L 541.802 535.207 L 537.782 526.17 L 543.813 496.046 L 540.797 486.004 L 544.818 478.975 Z"/>
    <path id="sil" d="M 555.875 530.186 L 565.927 561.315 L 580 554.286 L 584.021 549.265 L 590.052 548.261 L 593.068 549.265 L 599.099 546.253 L 610.156 552.277 L 615.182 556.294 L 618.198 562.319 L 619.203 566.335 L 628.25 573.364 L 640.312 571.356 L 647.348 580.393 L 654.385 579.389 L 667.452 568.344 L 650.364 554.286 L 639.307 523.157 L 600.104 515.124 L 594.073 525.166 L 573.969 526.17 L 569.948 530.186 Z"/>
    <path id="boh" d="M 565.927 559.306 L 556.88 564.327 L 545.823 563.323 L 541.802 564.327 L 540.797 571.356 L 540.797 579.389 L 544.818 586.418 L 557.886 595.455 L 568.943 603.489 L 575.979 608.509 L 592.062 612.526 L 596.083 609.513 L 598.094 603.489 L 596.083 601.48 L 606.135 593.447 L 613.172 590.435 L 617.192 594.451 L 625.234 593.447 L 637.296 593.447 L 642.322 598.468 L 648.354 591.439 L 647.348 577.381 L 638.302 571.356 L 628.25 572.36 L 620.208 562.319 L 614.177 554.286 L 609.151 550.269 L 596.083 545.248 L 593.068 550.269 L 588.042 547.257 L 582.01 546.253 L 583.016 549.265 L 580 555.29 Z"/>
    <path id="vie" d="M 591.057 641.646 L 609.151 661.729 L 624.229 652.691 L 641.317 635.621 L 650.364 630.6 L 664.437 609.513 L 673.484 605.497 L 672.478 599.472 L 670.468 598.468 L 662.426 593.447 L 648.354 592.443 L 642.322 597.464 L 633.276 592.443 L 621.213 593.447 L 615.182 594.451 L 613.172 590.435 L 596.083 601.48 L 592.062 611.522 L 592.062 613.53 L 591.057 631.604 Z"/>
    <path id="tri" d="M 560.901 661.729 L 563.917 686.832 L 556.88 699.886 L 570.953 711.936 L 573.969 695.87 L 576.984 695.87 L 605.13 751.097 L 632.27 776.201 L 639.307 771.18 L 657.4 784.234 L 661.421 781.221 L 665.442 768.168 L 674.489 775.197 L 681.525 774.193 L 678.51 768.168 L 674.489 766.159 L 658.406 746.077 L 663.432 735.031 L 668.458 730.01 L 665.442 709.927 L 651.369 697.878 L 643.328 682.816 L 625.234 674.783 L 623.224 652.691 L 608.146 660.725 L 592.062 642.65 L 587.036 649.679 L 560.901 655.704 Z"/>
    <path id="tyr" d="M 573.969 607.505 L 594.073 611.522 L 589.047 626.584 L 591.057 642.65 L 589.047 649.679 L 564.922 655.704 L 562.912 654.7 L 560.901 662.733 L 541.802 660.725 L 519.688 683.82 L 505.615 679.803 L 505.615 671.77 L 509.636 659.72 L 505.615 661.729 L 510.641 652.691 L 507.626 647.671 L 498.579 639.638 L 487.522 624.576 L 485.511 614.534 L 493.553 611.522 L 505.615 628.592 L 539.792 628.592 L 554.87 632.609 L 554.87 618.551 Z"/>
    <path id="mun" d="M 453.345 595.455 L 464.402 591.439 L 478.475 566.335 L 504.61 556.294 L 508.631 559.306 L 520.693 544.244 L 543.813 534.203 L 555.875 530.186 L 563.917 561.315 L 555.875 563.323 L 546.828 561.315 L 540.797 563.323 L 540.797 572.36 L 544.818 580.393 L 549.844 587.422 L 554.87 593.447 L 562.912 597.464 L 573.969 606.501 L 570.953 610.518 L 562.912 613.53 L 556.88 620.559 L 555.875 628.592 L 554.87 632.609 L 540.797 626.584 L 534.766 629.596 L 515.667 629.596 L 508.631 629.596 L 502.6 625.58 L 498.579 618.551 L 492.548 612.526 L 487.522 614.534 L 487.522 624.576 L 467.418 621.563 L 456.36 620.559 L 459.376 603.489 Z"/>
    <path id="kie" d="M 472.444 504.079 L 480.485 526.17 L 493.553 536.211 L 504.61 544.244 L 508.631 558.302 L 520.693 544.244 L 542.808 535.207 L 538.787 518.137 L 542.808 499.058 L 541.802 488.012 L 547.834 476.967 L 546.828 461.905 L 532.756 446.843 L 530.745 438.81 L 513.657 444.834 L 504.61 448.851 L 508.631 455.88 L 497.574 465.921 L 490.537 458.892 L 482.496 459.896 L 478.475 467.93 L 478.475 478.975 Z"/>
    <path id="ruh" d="M 452.34 591.439 L 456.36 597.464 L 469.428 582.402 L 479.48 566.335 L 508.631 555.29 L 503.605 544.244 L 491.542 535.207 L 480.485 524.161 L 472.444 504.079 L 459.376 511.108 L 456.36 523.157 L 447.314 539.224 L 452.34 558.302 L 442.288 570.352 L 443.293 582.402 Z"/>
    <path id="hol" d="M 413.137 510.103 L 425.199 506.087 L 435.251 506.087 L 436.257 501.066 L 429.22 497.05 L 434.246 487.008 L 418.163 483.996 L 423.189 469.938 L 439.272 472.95 L 456.36 461.905 L 474.454 460.901 L 479.48 471.946 L 477.47 488.012 L 472.444 505.083 L 460.381 510.103 L 456.36 522.153 L 448.319 540.228 L 442.288 537.215 L 439.272 522.153 L 415.147 515.124 Z"/>
    <path id="bel" d="M 388.007 513.116 L 414.142 506.087 L 418.163 515.124 L 439.272 523.157 L 443.293 537.215 L 448.319 539.224 L 449.324 548.261 L 451.335 555.29 L 447.314 566.335 L 444.298 571.356 L 419.168 558.302 L 399.064 541.232 L 391.023 536.211 L 377.955 529.182 Z"/>
    <path id="pic" d="M 410.121 572.36 L 411.127 577.381 L 420.173 558.302 L 400.069 542.236 L 393.033 536.211 L 377.955 529.182 L 354.835 538.219 L 345.789 547.257 L 341.768 546.253 L 338.752 561.315 L 341.768 565.331 L 356.846 566.335 L 375.945 558.302 L 379.965 559.306 L 389.012 566.335 Z"/>
    <path id="par" d="M 333.726 585.414 L 338.752 567.34 L 340.763 564.327 L 356.846 567.34 L 373.934 559.306 L 379.965 560.311 L 388.007 564.327 L 404.09 566.335 L 410.121 572.36 L 410.121 575.373 L 408.111 587.422 L 405.095 592.443 L 389.012 601.48 L 367.903 612.526 L 366.898 635.621 L 356.846 643.654 L 333.726 627.588 L 339.757 603.489 Z"/>
    <path id="bre" d="M 288.492 540.228 L 264.367 540.228 L 259.341 557.298 L 264.367 568.344 L 291.508 593.447 L 297.539 618.551 L 334.731 624.576 L 339.757 603.489 L 333.726 585.414 L 342.773 544.244 L 329.705 542.236 L 321.664 526.17 L 314.627 527.174 L 315.633 530.186 L 315.633 558.302 L 293.518 548.261 Z"/>
    <path id="bur" d="M 368.908 610.518 L 366.898 613.53 L 366.898 626.584 L 366.898 636.625 L 355.841 642.65 L 355.841 647.671 L 359.861 649.679 L 370.919 655.704 L 369.913 665.745 L 374.939 680.807 L 389.012 681.812 L 399.064 675.787 L 399.064 653.696 L 404.09 651.687 L 413.137 650.683 L 425.199 656.708 L 438.267 640.642 L 456.36 617.547 L 459.376 604.493 L 451.335 595.455 L 443.293 584.41 L 444.298 569.348 L 420.173 557.298 L 413.137 573.364 L 408.111 588.426 L 401.075 594.451 L 384.991 603.489 Z"/>
    <path id="gas" d="M 325.685 719.969 L 319.653 713.944 L 310.607 719.969 L 280.451 701.894 L 274.419 686.832 L 274.419 682.816 L 302.565 620.559 L 335.737 626.584 L 352.825 640.642 L 360.867 649.679 L 370.919 656.708 L 368.908 665.745 L 375.945 680.807 L 366.898 689.845 L 357.851 685.828 L 351.82 685.828 Z"/>
    <path id="mar" d="M 327.695 720.973 L 361.872 738.043 L 365.893 722.981 L 382.981 716.956 L 420.173 740.052 L 454.35 721.977 L 441.283 706.915 L 438.267 694.865 L 433.241 687.836 L 446.309 680.807 L 438.267 667.754 L 448.319 664.741 L 446.309 653.696 L 427.21 657.712 L 399.064 649.679 L 396.049 654.7 L 396.049 676.791 L 393.033 681.812 L 374.939 680.807 L 366.898 688.841 L 356.846 685.828 L 351.82 686.832 Z"/>
    <path id="nap" d="M 555.875 811.346 L 569.948 821.387 L 546.828 826.408 L 549.844 843.478 L 581.005 836.449 L 594.073 854.524 L 589.047 883.644 L 599.099 896.698 L 624.229 867.578 L 628.25 852.516 L 613.172 842.474 L 616.187 837.453 L 596.083 830.424 L 593.068 813.354 L 572.964 793.271 Z"/>
    <path id="rom" d="M 537.782 752.101 L 512.652 773.188 L 523.709 784.234 L 520.693 800.3 L 542.808 802.308 L 553.865 814.358 L 571.958 793.271 L 556.88 780.217 L 546.828 772.184 L 545.823 758.126 Z"/>
    <path id="apu" d="M 569.948 761.139 L 585.026 775.197 L 603.12 779.213 L 608.146 797.288 L 641.317 814.358 L 646.343 831.429 L 642.322 844.482 L 623.224 826.408 L 615.182 838.458 L 607.14 836.449 L 593.068 827.412 L 592.062 811.346 L 569.948 792.267 L 554.87 779.213 Z"/>
    <path id="ven" d="M 506.62 677.795 L 518.683 678.799 L 520.693 681.812 L 527.73 676.791 L 532.756 669.762 L 537.782 661.729 L 540.797 659.72 L 549.844 660.725 L 562.912 661.729 L 563.917 682.816 L 556.88 701.894 L 551.854 688.841 L 542.808 690.849 L 542.808 702.898 L 560.901 708.923 L 557.886 720.973 L 543.813 719.969 L 561.906 732.019 L 569.948 762.143 L 569.948 767.164 L 555.875 778.209 L 547.834 773.188 L 546.828 759.13 L 537.782 752.101 L 542.808 745.072 L 520.693 722.981 L 495.563 711.936 L 491.542 703.903 L 495.563 689.845 Z"/>
    <path id="pie" d="M 480.485 716.956 L 467.418 713.944 L 453.345 724.99 L 441.283 707.919 L 442.288 694.865 L 436.257 690.849 L 434.246 687.836 L 446.309 680.807 L 441.283 666.749 L 446.309 663.737 L 460.381 663.737 L 467.418 656.708 L 481.49 670.766 L 499.584 659.72 L 510.641 662.733 L 506.62 681.812 L 495.563 689.845 L 491.542 703.903 L 495.563 709.927 L 495.563 710.932 L 492.548 717.961 Z"/>
    <path id="tus" d="M 479.48 717.961 L 473.449 730.01 L 493.553 743.064 L 505.615 773.188 L 514.662 772.184 L 532.756 754.11 L 540.797 752.101 L 542.808 745.072 L 531.75 730.01 L 522.704 724.99 L 495.563 710.932 L 490.537 717.961 Z"/>
    <path id="por" d="M 136.707 685.828 L 131.681 674.783 L 119.619 717.961 L 95.494 741.056 L 95.494 767.164 L 98.51 776.201 L 83.432 806.325 L 90.468 815.362 L 111.577 815.362 L 141.733 789.255 L 137.712 777.205 L 144.749 768.168 L 144.749 748.085 L 156.811 746.077 L 169.879 715.952 L 185.962 706.915 L 175.91 691.853 L 159.827 694.865 L 153.796 681.812 Z"/>
    <path id="spa" d="M 131.681 646.667 L 135.702 685.828 L 153.796 681.812 L 158.821 693.861 L 174.905 693.861 L 184.957 706.915 L 170.884 716.956 L 154.801 747.081 L 145.754 747.081 L 140.728 755.114 L 144.749 770.176 L 138.717 776.201 L 140.728 790.259 L 112.582 816.366 L 133.692 826.408 L 138.717 842.474 L 150.78 852.516 L 188.977 848.499 L 213.102 859.544 L 254.315 845.487 L 281.456 818.375 L 276.43 803.313 L 297.539 774.193 L 320.659 762.143 L 340.763 764.151 L 360.867 756.118 L 360.867 737.039 L 327.695 719.969 L 317.643 714.948 L 310.607 718.965 L 278.44 700.89 L 276.43 683.82 L 185.962 648.675 L 180.936 632.609 Z"/>
    <path id="naf" d="M 12.062 970 L 429.22 967.992 L 431.23 939.876 L 425.199 924.814 L 432.236 911.76 L 435.251 901.718 L 455.355 895.694 L 412.132 884.648 L 388.007 889.669 L 363.882 877.619 L 326.69 880.631 L 287.487 871.594 L 261.352 882.64 L 234.211 881.636 L 224.159 894.689 L 206.066 887.66 L 200.035 882.64 L 167.868 880.631 L 157.816 863.561 L 147.764 859.544 L 126.655 864.565 L 105.546 893.685 L 56.291 898.706 L 34.177 914.772 L 15.078 942.888 Z"/>
    <path id="tun" d="M 454.35 893.685 L 438.267 901.718 L 435.251 910.756 L 425.199 923.809 L 430.225 939.876 L 428.215 968.996 L 505.615 967.992 L 499.584 948.913 L 486.516 930.838 L 486.516 922.805 L 497.574 914.772 L 497.574 907.743 L 472.444 893.685 Z"/>
    <path id="bla" d="M 856.43 788.25 L 894.627 784.234 L 910.711 765.155 L 936.846 753.106 L 963.986 751.097 L 1009.22 763.147 L 1059.48 757.122 L 1077.574 732.019 L 1074.558 717.961 L 1049.428 710.932 L 1014.246 690.849 L 982.08 677.795 L 978.059 672.774 L 979.064 661.729 L 992.132 645.662 L 990.121 639.638 L 978.059 627.588 L 952.929 644.658 L 941.872 652.691 L 958.96 660.725 L 972.028 660.725 L 972.028 675.787 L 955.945 686.832 L 946.898 690.849 L 936.846 703.903 L 920.763 703.903 L 914.731 686.832 L 900.659 682.816 L 904.679 663.737 L 887.591 658.716 L 880.555 652.691 L 868.492 652.691 L 866.482 667.754 L 856.43 680.807 L 860.451 691.853 L 852.409 700.89 L 843.362 705.911 L 843.362 729.006 L 830.295 749.089 L 829.289 765.155 L 840.347 780.217 Z"/>
    <path id="eme" d="M 860.451 912.764 L 853.414 917.785 L 813.206 954.938 L 755.91 951.925 L 757.92 970 L 1013.241 968.996 L 1009.22 940.88 L 1001.179 911.76 L 1003.189 895.694 L 993.137 904.731 L 982.08 897.702 L 973.033 913.768 L 945.893 923.809 L 921.768 917.785 L 900.659 912.764 L 895.633 926.822 L 876.534 926.822 Z"/>
    <path id="aeg" d="M 743.847 924.814 L 748.873 915.776 L 744.853 906.739 L 752.894 894.689 L 756.915 895.694 L 769.983 887.66 L 775.009 878.623 L 748.873 856.532 L 737.816 834.441 L 755.91 838.458 L 770.988 822.391 L 780.035 818.375 L 788.076 815.362 L 810.191 819.379 L 797.123 835.445 L 800.139 845.487 L 805.165 845.487 L 814.211 862.557 L 802.149 861.553 L 802.149 873.602 L 808.18 881.636 L 818.232 884.648 L 830.295 898.706 L 828.284 915.776 L 851.404 917.785 L 840.347 930.838 L 813.206 953.934 L 758.925 951.925 Z"/>
    <path id="adr" d="M 663.432 823.395 L 664.437 805.321 L 650.364 806.325 L 649.359 796.284 L 663.432 788.25 L 640.312 771.18 L 630.26 772.184 L 607.14 752.101 L 578.995 695.87 L 573.969 695.87 L 569.948 710.932 L 558.891 702.898 L 552.86 688.841 L 542.808 690.849 L 542.808 703.903 L 561.906 708.923 L 557.886 720.973 L 542.808 718.965 L 560.901 733.023 L 569.948 760.135 L 584.021 775.197 L 602.114 778.209 L 606.135 785.238 L 606.135 794.275 L 621.213 805.321 L 638.302 812.35 L 648.354 833.437 Z"/>
    <path id="ion" d="M 497.574 905.735 L 496.568 915.776 L 487.522 923.809 L 487.522 931.843 L 500.589 951.925 L 505.615 970 L 757.92 967.992 L 759.931 952.93 L 745.858 925.818 L 729.775 933.851 L 711.681 920.797 L 696.603 888.665 L 701.629 880.631 L 664.437 826.408 L 646.343 831.429 L 643.328 843.478 L 623.224 827.412 L 613.172 841.47 L 628.25 854.524 L 622.218 869.586 L 609.151 883.644 L 599.099 895.694 L 588.042 883.644 L 521.698 891.677 Z"/>
    <path id="tys" d="M 455.355 893.685 L 472.444 893.685 L 487.522 900.714 L 497.574 905.735 L 522.704 891.677 L 588.042 883.644 L 594.073 855.528 L 582.01 836.449 L 548.839 843.478 L 545.823 827.412 L 569.948 821.387 L 540.797 801.304 L 520.693 799.296 L 519.688 784.234 L 525.719 783.23 L 516.672 773.188 L 505.615 771.18 L 499.584 754.11 L 491.542 741.056 L 472.444 750.093 L 461.386 777.205 L 467.418 793.271 L 454.35 815.362 Z"/>
    <path id="gol" d="M 280.451 817.371 L 275.425 803.313 L 298.544 774.193 L 320.659 764.151 L 338.752 764.151 L 361.872 755.114 L 358.856 738.043 L 366.898 722.981 L 383.986 717.961 L 399.064 725.994 L 414.142 738.043 L 424.194 739.048 L 441.283 729.006 L 467.418 714.948 L 480.485 716.956 L 473.449 729.006 L 492.548 741.056 L 473.449 748.085 L 465.407 778.209 L 467.418 791.263 L 455.355 815.362 L 368.908 806.325 L 345.789 810.342 L 330.711 805.321 L 309.601 818.375 Z"/>
    <path id="wes" d="M 148.77 858.54 L 157.816 864.565 L 163.847 879.627 L 187.972 883.644 L 200.035 881.636 L 213.102 891.677 L 227.175 892.681 L 238.232 881.636 L 265.373 882.64 L 286.482 871.594 L 336.742 880.631 L 365.893 879.627 L 388.007 888.665 L 413.137 884.648 L 446.309 896.698 L 455.355 893.685 L 455.355 815.362 L 368.908 806.325 L 347.799 809.337 L 329.705 806.325 L 309.601 818.375 L 281.456 818.375 L 265.373 833.437 L 253.31 845.487 L 226.17 857.536 L 211.092 859.544 L 190.988 848.499 L 150.78 852.516 Z"/>
    <path id="mao" d="M 150.78 850.507 L 148.77 858.54 L 129.671 864.565 L 106.551 892.681 L 63.328 897.702 L 37.192 913.768 L 15.078 945.901 L 14.073 967.992 L 2.01 967.992 L 2.01 470.942 L 183.951 483.996 L 212.097 497.05 L 227.175 516.128 L 241.248 546.253 L 261.352 560.311 L 268.388 571.356 L 290.503 592.443 L 297.539 620.559 L 295.529 638.633 L 277.435 683.82 L 254.315 678.799 L 209.081 657.712 L 186.967 650.683 L 180.936 636.625 L 162.842 637.629 L 147.764 642.65 L 131.681 645.662 L 131.681 657.712 L 134.697 669.762 L 127.66 695.87 L 118.614 719.969 L 108.562 730.01 L 94.489 742.06 L 94.489 754.11 L 97.504 769.172 L 101.525 772.184 L 89.463 796.284 L 83.432 806.325 L 90.468 811.346 L 97.504 810.342 L 112.582 816.366 L 128.666 822.391 L 131.681 825.404 L 134.697 835.445 L 139.723 844.482 Z"/>
    <path id="eng" d="M 381.976 508.095 L 389.012 510.103 L 379.965 530.186 L 353.83 537.215 L 347.799 546.253 L 328.7 542.236 L 322.669 527.174 L 313.622 529.182 L 315.633 541.232 L 315.633 559.306 L 293.518 548.261 L 288.492 539.224 L 263.362 540.228 L 260.347 550.269 L 261.352 558.302 L 239.237 543.24 L 227.175 515.124 L 241.248 504.079 L 262.357 499.058 L 269.393 510.103 L 280.451 501.066 L 293.518 508.095 L 299.549 502.07 L 339.757 506.087 L 357.851 513.116 Z"/>
    <path id="lon" d="M 345.789 463.913 L 367.903 461.905 L 379.965 452.867 L 391.023 458.892 L 398.059 471.946 L 395.043 486.004 L 384.991 492.029 L 377.955 496.046 L 385.997 504.079 L 382.981 511.108 L 358.856 515.124 L 338.752 506.087 L 331.716 485 L 341.768 474.959 Z"/>
    <path id="wal" d="M 322.669 424.752 L 321.664 440.818 L 328.7 453.872 L 341.768 456.884 L 345.789 464.917 L 342.773 474.959 L 331.716 485 L 337.747 508.095 L 328.7 508.095 L 300.555 501.066 L 293.518 507.091 L 282.461 500.062 L 271.404 508.095 L 260.347 500.062 L 279.445 481.988 L 300.555 473.954 L 287.487 466.925 L 284.471 453.872 L 296.534 450.859 L 299.549 432.785 Z"/>
    <path id="yor" d="M 354.835 393.623 L 367.903 388.602 L 374.939 410.694 L 382.981 434.793 L 376.95 455.88 L 369.913 461.905 L 345.789 463.913 L 342.773 455.88 L 347.799 430.776 Z"/>
    <path id="lvp" d="M 341.768 381.573 L 354.835 392.619 L 347.799 430.776 L 345.789 455.88 L 327.695 452.867 L 320.659 438.81 L 323.674 424.752 L 335.737 391.615 Z"/>
    <path id="edi" d="M 372.929 297.226 L 370.919 308.271 L 362.877 318.313 L 380.971 327.35 L 380.971 343.416 L 362.877 357.474 L 367.903 390.611 L 353.83 390.611 L 343.778 382.578 L 331.716 361.491 L 340.763 315.3 L 362.877 295.217 Z"/>
    <path id="iri" d="M 184.957 486.004 L 195.009 446.843 L 208.076 438.81 L 274.419 439.814 L 289.497 398.644 L 302.565 395.631 L 328.7 402.66 L 323.674 423.747 L 299.549 433.789 L 296.534 451.863 L 284.471 451.863 L 286.482 468.934 L 300.555 473.954 L 277.435 482.992 L 261.352 500.062 L 242.253 504.079 L 226.17 515.124 L 211.092 497.05 Z"/>
    <path id="cly" d="M 362.877 294.213 L 340.763 313.292 L 333.726 363.499 L 339.757 381.573 L 336.742 389.607 L 334.731 392.619 L 313.622 391.615 L 313.622 363.499 L 314.627 334.379 L 299.549 322.329 L 302.565 305.259 L 309.601 291.201 L 328.7 280.155 Z"/>
    <path id="bar" d="M 722.738 1.004 L 1005.199 1.004 L 988.111 29.12 L 986.101 7.029 L 971.023 6.025 L 942.877 69.286 L 924.783 46.19 L 891.612 49.203 L 914.731 102.422 L 900.659 110.455 L 884.575 141.584 L 903.674 163.675 L 882.565 162.671 L 855.425 152.629 L 856.43 169.7 L 869.497 184.762 L 867.487 188.778 L 844.367 175.725 L 838.336 149.617 L 820.243 134.555 L 874.523 139.576 L 892.617 112.464 L 890.607 86.356 L 883.57 79.327 L 868.492 75.311 L 836.326 65.269 L 823.258 57.236 L 808.18 60.248 L 799.133 71.294 L 796.118 61.253 L 794.107 46.19 L 786.066 46.19 L 777.019 52.215 L 771.993 55.228 L 778.024 35.145 L 758.925 29.12 L 750.884 25.104 L 736.811 31.128 L 726.759 34.141 L 715.702 31.128 Z"/>
    <path id="nrg" d="M 263.362 1.004 L 722.738 0 L 716.707 32.133 L 693.588 33.137 L 680.52 56.232 L 667.452 64.265 L 651.369 65.269 L 631.265 89.369 L 623.224 116.48 L 619.203 128.53 L 600.104 140.58 L 600.104 158.654 L 582.01 180.745 L 555.875 203.841 L 521.698 220.911 L 491.542 237.981 L 490.537 257.06 L 426.204 262.081 L 404.09 271.118 L 371.924 298.23 L 347.799 287.184 L 362.877 210.87 L 367.903 193.799 Z"/>
    <g id="nat" transform="matrix(1.005199, 0, 0, 1.004141, 3.015598, 1.004141)">
      <path d="M 310,332 L 309,391 L 330,389 L 325,401 L 298,393 L 300,364 L 286,361 L 286,354 L 305,336 z"/>
      <path d="M -1,0 L 259,0 L 362,191 L 344,286 L 324,278 L 306,287 L 296,307 L 295,321 L 304,335 L 297,342 L 286,353 L 251,356 L 230,364 L 219,381 L 220,398 L 217,409 L 202,414 L 202,435 L 190,444 L 180,482 L -3,468 z"/>
    </g>
    <path id="stp-nc" d="M 759.931 94.389 L 774.003 115.476 L 770.988 135.559 L 787.071 177.733 L 792.097 198.82 L 807.175 223.923 L 808.18 238.985 L 848.388 260.072 L 891.612 229.948 L 977.054 201.832 L 1036.36 183.758 L 1045.407 144.596 L 1045.407 127.526 L 989.116 98.406 L 976.049 100.414 L 954.939 82.34 L 947.903 53.219 L 943.882 65.269 L 925.789 44.182 L 891.612 47.195 L 888.596 55.228 L 910.711 101.418 L 884.575 139.576 L 899.653 160.663 L 856.43 151.625 L 851.404 165.683 L 865.477 184.762 L 843.362 175.725 L 839.341 148.613 L 822.253 137.567 L 872.513 139.576 L 892.617 113.468 L 890.607 87.36 L 862.461 72.298 L 838.336 66.273 L 818.232 55.228 L 799.133 69.286 L 794.107 44.182 L 779.029 52.215 L 780.035 67.277 L 762.946 82.34 Z"/>
    <path id="stp-sc" d="M 809.185 238.985 L 849.393 261.077 L 856.43 319.317 L 849.393 358.478 L 835.321 381.573 L 818.232 388.602 L 797.123 388.602 L 793.102 371.532 L 776.014 347.433 L 752.894 343.416 L 734.801 342.412 L 725.754 330.362 L 743.847 320.321 L 757.92 318.313 L 769.983 321.325 L 776.014 323.333 L 789.081 312.288 L 794.107 304.255 L 779.029 301.242 L 787.071 287.184 L 794.107 273.126 L 802.149 266.097 Z"/>
    <path id="bul-ec" d="M 827.279 728.002 L 837.331 738.043 L 830.295 746.077 L 828.284 758.126 L 829.289 767.164 L 838.336 776.201 L 825.269 778.209 L 817.227 777.205 L 794.107 774.193 L 794.107 745.072 L 790.087 731.014 L 803.154 724.99 L 810.191 725.994 Z"/>
    <path id="bul-sc" d="M 734.801 788.25 L 772.998 775.197 L 816.222 775.197 L 802.149 786.242 L 806.17 797.288 L 799.133 814.358 L 771.993 823.395 L 767.972 809.337 L 762.946 799.296 L 737.816 804.317 L 728.77 803.313 L 724.749 800.3 L 725.754 793.271 Z"/>
    <path id="spa-sc" d="M 318.648 714.948 L 295.529 744.068 L 259.341 774.193 L 226.17 802.308 L 183.951 813.354 L 157.816 804.317 L 139.723 790.259 L 119.619 806.325 L 111.577 816.366 L 129.671 826.408 L 139.723 844.482 L 150.78 850.507 L 189.983 846.491 L 216.118 860.549 L 258.336 841.47 L 279.445 816.366 L 275.425 803.313 L 295.529 775.197 L 321.664 760.135 L 337.747 762.143 L 360.867 755.114 L 358.856 736.035 L 324.679 718.965 Z"/>
    <path id="spa-nc" d="M 178.925 632.609 L 129.671 645.662 L 135.702 684.824 L 152.79 679.803 L 158.821 693.861 L 174.905 691.853 L 182.946 705.911 L 208.076 731.014 L 252.305 729.006 L 294.523 715.952 L 295.529 711.936 L 278.44 699.886 L 274.419 681.812 L 203.05 654.7 L 184.957 644.658 Z"/>
    <path id="swi" d="M 430.225 651.687 L 454.35 623.571 L 486.516 626.082 L 493.553 640.642 L 503.605 656.708 L 480.485 664.741 L 465.407 654.7 L 446.309 660.223 L 445.303 647.671 Z"/>
  </g>
</svg>
