<?xml version="1.0" standalone="no"?>
<!DOCTYPE svg PUBLIC "-//W3C//DTD SVG 1.0//EN"
 "http://www.w3.org/TR/2001/REC-SVG-20010904/DTD/svg10.dtd">
<svg xmlns="http://www.w3.org/2000/svg" xmlns:xlink="http://www.w3.org/1999/xlink" width="538" height="457">
    <g class="mouseLayer" transform="translate(7,2)">
        <path id="AA" d="M 6.5124555,362.25534 6.5124555,447.73132 111.5258,448.54537 109.89769,362.25534 Z" />
        <path id="AA-EC" d="M 109.36878,362.52184 81.738776,384.3956 81.163151,448.86562 111.09566,448.86562 Z" />
        <path id="AA-NC" d="M 7.4831274,362.52184 6.9075022,386.6981 81.163151,386.12248 109.94441,361.94622 Z" />
        <path id="BA" d="M 110.71174,363.0694 110.71174,448.54538 215.72509,449.35943 214.09698,363.0694 Z" />
        <path id="CA" d="M 216.53914,362.25534 216.53914,447.73132 321.55249,448.54537 319.92438,362.25534 Z" />
        <path id="DA" d="M 321.30292,362.25534 321.30292,447.73132 426.31627,448.54537 424.68816,362.25534 Z" />
        <path id="EA" d="M 425.49108,362.25534 425.49108,447.73132 530.50443,448.54537 528.87632,362.25534 Z" />

        <path id="DE" d="M 320.81493,7.9086623 320.81493,93.384642 425.82828,94.198692 424.20017,7.9086623 Z" />
        <path id="EE" d="M 426.15434,8.4842875 426.15434,93.960267 531.16769,94.774317 529.53958,8.4842875 Z" />
    </g>
</svg>
