<?xml version="1.0" standalone="yes"?>
<!DOCTYPE svg PUBLIC "-//W3C//DTD SVG 1.0//EN" "http://www.w3.org/TR/2001/REC-SVG-20010904/DTD/svg10.dtd">
<svg width="1266" height="1066" xmlns="http://www.w3.org/2000/svg" xmlns:xlink="http://www.w3.org/1999/xlink">
    <g>
        <path
            d="M 502.17684,465.04575 491.77604,481.88513 488.80439,500.70561 477.90832,529.92688 460.57366,544.78516 476.91777,565.09147 489.79494,570.04423 517.03511,592.33164 526.94063,608.67574 546.75166,601.74188 556.65718,589.35999 585.38318,572.02533 604.20366,571.03478 615.09973,563.60564 606.68004,542.80406 595.2887,532.40326 584.8879,499.71506 590.83121,480.3993 566.5627,473.46544 555.66663,480.3993 518.52094,476.43709 Z"
            id="cry" />
        <path
            d="M 802.3329,424.67878 824.62031,413.78271 836.01166,403.38192 839.47859,386.04726 844.92662,385.05671 849.87938,390.00947 861.766,385.05671 889.50145,358.31182 895.44476,355.34016 905.84555,344.93937 910.79831,344.44409 913.76997,342.46299 922.18965,350.3874 914.26524,360.29292 912.77941,361.77875 910.30303,362.27402 904.35972,367.72206 893.95893,374.16064 905.35028,394.46695 894.94948,397.93388 888.5109,404.86775 877.11955,404.86775 867.70931,411.30633 850.37466,420.2213 842.45024,428.14571 827.09669,439.04178 819.17228,445.97564 Z"
            id="coa" />
    </g>
</svg>
