<?xml version="1.0" standalone="yes"?>
<!DOCTYPE svg PUBLIC "-//W3C//DTD SVG 1.0//EN" "http://www.w3.org/TR/2001/REC-SVG-20010904/DTD/svg10.dtd">
<svg width="1266" height="1066" xmlns="http://www.w3.org/2000/svg" xmlns:xlink="http://www.w3.org/1999/xlink">
    <g>
        <path d="M0 0L0 1066L1266 1066L1266 0L0 0z"/>
        <path d="M510.424 12.7098C501.645 15.2292 492.082 13.6802 483.015 14.0186L454.17 18.2593C422.034 24.0709 390.332 31.4552 359.275 42.4059C223.202 90.3841 109.34 199.045 53.0494 331.614C28.5741 389.255 15.04 452.816 13.9954 514.999C13.5988 538.607 11.2498 563.022 14.1289 586.911C20.3663 638.664 32.4813 691.946 53.0494 740.386C78.4666 800.245 115.262 850.969 158.982 898.347C173.421 913.994 187.949 931.18 205.04 944.201C285.797 1005.72 380.216 1045.71 481.09 1057.87C545.101 1065.59 612.755 1057.96 674.715 1041.55C828.009 1000.95 957.198 885.816 1018.95 740.386C1049.14 669.283 1060.82 592.104 1058.02 515.996C1056.29 469.092 1050.81 421.246 1035.27 376.439C1018.7 328.631 997.243 282.717 969.286 240.478C898.832 134.034 784.863 59.145 662.166 27.5493C638.838 21.5421 614.734 17 590.911 14.1289L566.039 13.8711C549.676 11.95 526.674 8.04688 510.424 12.7098z"/>
        <path d="M254 104C245.312 99.5524 229.061 116.856 222.255 122.219C192.247 145.863 166.772 171.706 140.982 199.653C62.791 284.386 22.1566 402.64 17.9815 515.996L16.0185 544.985C17.1954 576.529 20.6225 608.762 26.2593 639.83C28.6824 653.186 35.8478 666.253 36 680L44 680L44 682L38 682C38.2522 690.541 42.8454 698.238 45.5941 706.131C52.072 724.734 58.9789 742.354 67.8002 760C71.1945 766.79 73.3946 780.735 82 782L80 784L80 786L103.224 824.255C123.198 851.481 143.943 877.707 167.018 902.329C241.1 981.379 345.763 1029.79 450.91 1048.26C473.499 1052.23 497.006 1055.92 520 1056L520 1050L522 1050L522 1056C544.132 1056 567.01 1056.51 588.911 1053.87L632 1048L632 1042L634 1042L634 1046C643.175 1046 651.357 1042.72 660.166 1040.45C681.822 1034.87 702.34 1028.68 723.275 1020.71C823.227 982.64 910.318 912.612 969.286 823.522C986.882 796.936 1001.34 768.193 1014.58 739.196C1019.43 728.576 1020.86 713.122 1028 704L1028 702L1026 700L1030 700L1037.55 670.715C1043.84 646.727 1051.27 620.773 1052 596L1044 596L1044 594L1052 594C1054.3 558.649 1058.16 522.651 1053.87 487.089C1043.09 397.67 1013.23 306.995 958.777 233.745C942.108 211.325 924.52 187.071 903.652 168.383C888.646 154.945 868.284 141.852 856 126L854 126L852 128C850.82 119.901 840.564 115.2 834.478 110.777C818.04 98.832 800.229 86.9154 782 77.8002C775.394 74.4971 765.203 66.3121 758 70C756.769 61.6231 739.18 56.5424 731.869 54.1312L651.285 29.2902C623.241 20.8939 594.031 19.9775 565.015 17.9459C487.699 12.5328 416.488 27.666 343.579 53C319.831 61.2518 293.684 73.3232 273 87.7314C266.605 92.1859 255.262 95.339 254 104z"/>
        <path d="M756 70C751.57 89.8645 733.125 100.144 728.455 119.286C726.429 127.59 732 137.309 732 146L720.907 151.722C710.728 153.959 697.932 147.495 696 162L660 154C658.639 143.713 651.084 140.988 646.825 132.689C640.536 120.436 641.591 104.13 635.144 92.5679L620 78L618 78L614 80L606 98C593.594 99.6528 585.582 108.571 592 120L588 122L586 122L582 120L583.471 101.311C579.617 88.9191 559.125 96.3575 551.764 101.274L544.746 108.883C541.363 109.946 537.804 106.327 536 104L534 104C530.287 107.386 524.269 110.23 522.51 115.326C519.751 123.319 527.096 131.479 526 140L500 148C500 140.103 500.222 121.503 490 120C489.772 112.501 482.482 109.131 477.314 115.875C475.287 118.52 476 122.877 476 126C465.003 123.549 452.278 118.037 441 118.037C405.558 118.037 373.702 135.055 341 145.869C332.196 148.78 323.391 154.044 315.731 159.206C312.152 161.618 307.222 166.514 302.804 166.994C299.676 167.334 297.597 164.2 296 162L294 162L288 168L286 168L270.249 143.986L263.272 120.439L256 104L254 104L261.272 121.289L265.049 138.386C269.967 149.967 278.802 159.838 286 170L288 170L294 164L296 164L300 168L300 170C287.728 180.706 306.531 201.965 303.218 214.725C300.204 226.332 281.944 230.657 280 244L254 250C253.839 245.167 249.866 240.076 244.899 244.703C240.956 248.375 238.679 256.864 238 262L234 262L230.589 252.13C231.66 241.493 239.15 235.682 233.175 224.514C227.313 213.555 214.386 221.692 205.254 215.272C196.863 209.372 194.134 198.751 189.161 190.564L181.675 184.325C176.887 179.536 174.388 173.15 168 170C171.251 176.594 180.386 188.891 188 190C188.352 201.906 201.457 218.818 213.275 221.522C219.759 223.005 225.802 216.721 230.726 224.515C238.968 237.559 220.69 252.139 234 262L234 264C227.5 268.85 219.069 287.975 218 296L204.171 294.26L179.961 301.871C161.694 304.016 148.326 296.435 132 308L132 310L145.157 329.325C148.618 336.779 149.611 352.44 162 346C161.994 354.057 160.715 357.903 152 358C150.705 349.188 133.756 346.752 130.514 355.344C125.708 368.078 137.6 381.563 136 394C125.401 394.322 128.63 404.025 134.398 409.598C140.357 415.355 148.371 411.287 154.764 413.103L162 420L162 422C157.865 425.613 160 436.751 160 442C148.59 442 135.917 438.646 125.275 442.406C111.377 447.316 122.769 456.77 132 458C116.159 480.363 109.05 509.404 105.871 535.961L102.005 560.004L105.995 597.001C106.25 612.134 109.769 625.613 113.549 640.166C114.627 644.315 114.75 651.165 118 654L118 656C110.86 659.526 113.583 663.583 114 670L80.9105 677.741L65.9961 676.005L44 678L44 680C61.4897 680 78.0324 679.389 95.0887 676.258C100.815 675.208 109.685 675.086 114.121 670.736L118 656L120 656C132.263 672.551 147.727 659.564 163.855 666.456C170.355 669.234 170.567 676.667 173.05 682.385C177.138 691.799 185.897 697.839 185.892 709L182 722C179.355 722.077 177.734 721.997 176 724C172.34 721.999 161.047 721.716 166.623 728.677L174.96 730.817C180.436 733.379 183.556 739.062 190 740C179.665 754.237 174.421 740.436 163.561 736.728C156.539 734.331 146.492 736.065 144.259 744.181L142 754C135.574 754.937 129.627 761.991 123.6 765L104.439 770.728L82 780L82 782L105.289 772.728C114.759 769.53 124.827 768.853 132.964 762.218L143.745 752.746C146.839 747.84 145.512 740.7 152.184 738.51C164.569 734.444 180.246 758.884 188 744L190 744C194.207 752.531 207.38 767.75 216 772L216 774C209.471 778.873 212.442 789.901 211.946 796.985C210.949 811.232 201.694 823.401 200.13 837.089C199.597 841.752 201.229 851.126 205.055 854.191C209.831 858.018 217.346 851.69 222.171 850.46C230.817 848.256 247.537 857.249 248 842L256 844L254 854C246.963 854.938 239.296 862.851 245.318 870.106C252.89 879.23 271.008 872.61 279.85 874.643C286.151 876.091 281.817 884.507 286.569 887.137C300.094 894.623 307.732 873.094 308 864C317.458 864.007 329.183 866.622 338 870L338 872C331.44 875.439 326.582 898.743 328.279 905.811C329.837 912.3 338.754 910.253 342.34 906.982L347 902C355.897 912.137 364.834 924.725 375.745 932.776L401.2 945.8C426.016 958.206 455.315 968.524 483.09 971.871L522 972C519.697 982.365 524.536 982 534 982C533.272 993.222 532.329 1006.91 529.54 1017.83C526.567 1029.47 522 1037.39 522 1050L524 1050C524 1031.33 533.954 1015.72 534 997C534.01 993.008 537.349 985.12 534.681 981.893C532.104 978.775 525.572 980 522 980L524 970C539.529 967.737 535.025 944.433 543.26 934.529C547.665 929.231 553.933 930.807 559.83 929.741C572.755 927.403 586.572 919.473 599.481 927.279C604.826 930.51 602.138 936.625 606 940C603.999 943.66 603.716 954.953 610.677 949.377L612.961 941.263C616.024 936.846 624.975 933.139 630 932C628.022 935.862 629.108 937.984 630 942C611.698 944.667 599.768 978.472 624 982L629.871 1004.04L628.005 1020L630 1042L632 1042L630.009 1021C630.009 1010.87 632.493 1003.63 629.545 993.289L624.122 981.263C620.771 977.979 614.157 976.57 612.514 971.811C610.222 965.174 615.15 958.424 616 952C620.122 951.399 629.208 945.34 631.089 941.471L631.933 933.86C636.894 927.91 648.477 925.96 655.2 922.6L663.986 918.97L673.325 925.495C686.881 930.479 698.706 934.566 710.255 943.782C717.196 949.321 726.178 959.382 736.657 955.485C743.375 952.987 738.646 942.619 738.13 937.961C736.975 927.543 751.589 912.709 738 906L738 904L745.986 900.97C753.64 901.545 752.487 915.522 761.275 917.522C766.346 918.676 768.4 913.772 770.795 910.269C777.179 900.927 780 895.422 780 884L791.427 883.142C806.235 874.768 787.848 857.312 778 856C778.711 845.61 789.647 838.827 794 830L796 830C799.384 836.862 820.221 853.837 828.236 848.721C836.758 843.281 824.823 835.575 831.751 829.786L868.964 806.218C905.275 776.489 931.608 731.286 946.131 687C949.211 677.608 959.707 679.649 960 670C972.13 670.787 988.591 678.144 998.764 684.714C1007.4 690.292 1015.14 698.553 1026 700L1026 698C1008.11 693.942 994.276 678.594 976.725 672.406C969.284 669.782 958.364 664.013 958 676C947.004 675.877 950.218 669.162 944.122 663.264C935.739 655.153 921.31 654.845 918.278 640.907C916.744 633.858 924.117 621.345 918 616L918 614C921.515 610.934 925.341 596.945 926 592L937.869 588.589L948.995 594.365C956.344 594.311 952.654 586.35 948 585L942 566L954 566C954.357 578.102 959.628 597.179 975.819 593.718L986.518 585.278C990.325 583.033 996.72 583.755 1000.99 584.054C1015.83 585.093 1028.77 594 1044 594L1044 592C1029.16 592 1016.45 583.089 1001.96 582.054C997.566 581.74 990.569 580.896 986.518 582.843L974.921 591.668L960 588C959.982 582.606 958.71 567.846 953.427 564.858L942 564L939.871 539.089C939.365 534.892 936.522 530.641 939.314 526.568L946.776 520.25C952.909 512.288 958.17 503.284 966.478 497.223C978.103 488.742 993.649 483.428 995.411 466.809C996.066 460.638 981.39 458.89 977.079 457.741C968.701 455.508 957.731 436.342 950 452L948 452C945.558 446.974 945.284 445.569 946 440C950.28 439.449 958.818 441.219 962.125 438.686C977.715 426.745 953.873 407.571 942 406C942.049 401.605 942.424 398.798 946 396L946 394C938.497 388.685 932.485 384.416 923.311 388.456C918.747 390.466 916.007 397.153 910.181 395.471C902.688 393.309 900.182 380.58 894 376L894 374C904.028 369.981 911.627 363.112 918.379 355.036C922.332 350.307 921.156 343.501 913.855 342.332L904 344C903.153 315.306 892.068 285.18 874.776 261.745L846.383 230.964C835.04 217.87 820.551 200.637 804 194L804 192C812.22 187.942 808.915 181.41 802 178L802 176L823.036 152.383C832.594 144.114 845.885 140.401 852 128L836.255 142.218L823.036 149.782L800 176L800 178C802.589 179.875 808.356 183.713 806.588 187.522C803.675 193.798 796.384 190.807 791.325 192.509C780.488 196.156 773.073 209.113 761.855 211.362C757.093 212.317 741.638 201.285 738 198L736 198L736 200L734 200C729.57 191.496 705.429 182.028 722 170L722 168C714.169 162.462 705.317 164 696 164L700 154C709.418 154 730.61 156.823 733.721 143.811C736.63 131.647 727.229 123.512 733.823 110.808C741.414 96.1823 755.663 87.6639 758 70L756 70z"/>
        <path d="M618 80L606.14 98.1396L592.728 106.529C589.761 110.504 590.007 115.02 594 118L594 120L588 124L586 124C583.661 120.841 579.668 119.208 578.988 114.8C578.035 108.627 586.475 99.8531 576.675 96.5108C571.137 94.6218 557.452 99.8698 552.564 102.839C545.963 106.848 543.875 116.163 536 106L534 106C529.313 110.274 523.657 112.614 524.059 119.964C524.408 126.351 531.454 131.656 527.741 137.981C525.385 141.994 503.76 151.647 499.879 148.052C496.792 145.193 494.31 126.768 494 122C489.544 120.835 488.306 118.469 488 114L478 116C477.997 119.232 478.773 124.573 475.467 126.553C472.388 128.398 465.888 125.23 462.715 124.455C453.152 122.121 443.448 119.278 433.83 121.545L383.289 130.455L338.435 148.71C325.131 153.861 313.71 166.891 300 170L298.264 183.834C300.024 194.491 310.154 209.385 302.775 219.521L291.671 229.001C283.389 237.504 280.489 243.57 269.6 249C262.555 252.513 252.717 254.452 252 244L246 244C244.508 250.58 241.088 262.148 234 264L218.728 296.439L218 312L216 312L216 298C202.797 295.057 193.918 301.456 180.91 303.741L152 302.009C147.792 302.009 136.461 303.827 135.737 309.129C134.682 316.855 144.29 323.148 147.157 329.325L151.274 342.236C153.397 345.404 157.323 347.062 160 344L162 344C166.15 354.831 160.917 359.992 150 360L150 354C142.943 352.427 139.008 353.545 132 354C132 361.689 132.476 369.269 134.46 376.711L139.08 388C139.077 393.26 134.484 395.693 130 396C130.529 399.971 132.808 407.045 136.568 409.144C145.85 414.324 158.56 406.638 162 420L166 420L166 422L162 422C162 427.245 163.875 436.991 160.682 441.427C155.606 448.48 140.65 442.108 134 442.108L120 446L120 452L134.171 457.74L162 458L162 460C154.79 460 137.715 456.839 131.875 461.314C128.167 464.155 126.862 470.6 125.29 474.725L115.29 498.725C101.686 534.433 103.253 576.156 109.741 613.089C111.901 625.385 112.625 642.259 118.856 653.432C130.39 674.113 155.841 652.581 169.612 669.04L175.05 682.385L185.157 697.325C189.324 706.299 188.523 723.141 176 724C176.259 732.533 184.696 737.071 192 740L192 742L190 742L190 744C200.241 751.417 208.504 771.591 222 772L222 774L216 774L213.545 799.83L202.455 835.286C201.507 839.174 202.452 851.038 206.533 853.088C209.982 854.82 217.738 849.741 221.285 848.711L235.075 849.853L246 848L248 840L250 840L256.664 844.569C261.012 851.009 250.837 856.903 246 858L246 870L265.09 873.871C276.978 875.304 285.987 869.138 286 886C292.161 885.818 300.36 884.607 302.945 878.384C304.781 873.967 304.29 866.38 308.573 863.318C315.228 858.56 333.734 866.949 340 870L340 872C331.744 876.328 330 899.505 330 908C339.017 907.999 341.07 905.001 348 900L360.218 913.745C386.658 946.877 430.68 956.368 469.834 966.451C484.319 970.181 509.977 974.873 524.384 968.945C540.196 962.44 530.94 938.047 546.808 929.823L560.714 927.545C576.186 923.764 605.98 914.213 606 940C613.18 939.788 624.047 928.3 630 932L632 932C639.711 925.036 662.333 923.345 664 912L666 912C666.359 923.827 676.949 923.446 685.565 927.049C704.612 935.015 716.648 953.927 738 954L736.13 934.039C737.166 924.7 748.532 912.188 736 906L736 904L745.196 899.006C751.832 898.286 754.943 909.261 756 914L766 916L777.491 896.675C778.842 892.66 776.58 887.207 779.893 883.894C782.758 881.029 788.324 882 792 882C792.378 876.178 795.276 871.693 792.177 866.019C788.863 859.953 769.152 856.493 780 848L780 846L778 844C784.26 843.088 791.281 833.513 794 828L796 828C799.183 834.454 819.669 851.432 827.431 847.137C832.771 844.183 827.41 838.614 827.006 834.804C826.698 831.896 829.692 829.414 831.745 827.782L868.964 804.218C894.791 783.072 912.692 755.015 927.4 725.6L941.29 695.565C943.701 689.336 944.439 682.309 950 678L950 676C946.053 672.942 944.321 668.933 944 664C933.45 661.608 917.729 651.771 916.133 639.96C915.226 633.24 921.854 621.116 916 616L916 614C921.745 608.989 919.769 596.88 926.529 591.26C931.009 587.534 944.156 588.516 945.468 584.671C947.615 578.377 938.194 572.113 942 566L942 564C935.548 555.504 936 534.464 936 524C945.67 522.712 948.64 513.666 954.383 507.036C962.188 498.027 976.342 485.002 988 482L994 464C988.559 463.647 979.2 461.501 974.518 458.722L961.561 448.728C955.623 446.711 950.862 450.084 950 456L948 456L943.103 446.764C941.521 440.959 950.295 436.624 954 434L954 438L962 438L965.48 428C965.479 415.289 948.074 412.975 941.879 406.125C938.61 402.511 940.8 398.503 944 396L944 394C936.699 389.9 931.515 386.843 923.311 390.456C918.745 392.467 916.009 399.15 910.181 397.471C901.352 394.929 899.025 381.205 892 376L892 374L914 360L919.444 350C919.444 341.663 909.992 346.24 906.15 345.357C902.431 344.503 901.214 339.022 900.455 335.83L897.272 308.439C886.816 277.603 865.004 254.767 844.383 230.964C835.412 220.608 826.465 212.772 815.745 204.218L802.675 194.509C785.496 188.729 776.463 210.433 761.855 213.362C757.093 214.317 741.638 203.285 738 200L736 200L736 202L734 202C729.466 193.297 702.602 182.629 720 170L720 168C713.68 164.712 706.856 166.686 700.039 165.871C689.879 164.657 674.023 160.79 664.439 156.945C657.426 154.132 658.154 148.231 654.201 143.04C643.076 128.436 634.214 111.369 634 92C628.289 90.5297 623.387 84.6755 620 80L618 80z"/>
        <path d="M576 110C567.857 116.169 555.794 113.328 549.278 123.76C540.523 137.776 546.67 157.58 549.526 172.166C550.583 177.562 540.933 187.513 552 188L556.883 193.254L554.314 202.131L554 220L536 220L526.259 188.911L527.463 165.985L522 144L520 144L525.012 165.192L522.537 172.015C522.145 180.573 524.229 192.344 526.46 200.711L542 242L518 246C517.999 234.025 516.1 220.645 509.285 210.479C505.39 204.668 497.917 203.447 496 196C505.859 194.551 500.427 184.02 498.401 177.87C492.947 161.307 481.138 143.533 480 126L478 126C478.703 149.808 499.733 169.922 500 194C497.148 194.419 493.359 195.785 494.898 199.522L506.14 209.86L512.946 222.439C515.466 228.858 512.542 241.231 518 246L518 248C514.962 250.683 518.363 255.126 517.735 258.911L508 280C491.872 276.405 474.74 272.861 458.039 274.054C433.987 275.772 407.579 285.744 385.565 294.951C376.441 298.766 354.702 302.974 350 312L348 312L338.825 300.689C336.246 295.665 336.239 284.882 332.107 281.313C328.867 278.515 320.983 276.586 318 280L316 280L301.26 269.471C294.707 261.591 293.366 244.879 284 240C287.862 249.637 292.936 261.976 299.225 270.25C303.126 275.384 314.861 276.98 316.883 283.254L316 294C313.131 294.087 308.754 294.156 308.538 298.019L313.869 313C318.046 325.74 321.288 340.414 329.781 350.964C335.17 357.659 338.891 362.74 348 358C349.762 371.319 352.729 401.483 370 404L368 408L368 410C372.691 416.478 361.925 420.24 357 421.869C344.956 425.852 339.171 420.763 327.285 417.291C323.712 416.247 316.691 412.952 314 416L312 416C309.146 410.557 300.695 410.91 295.285 409.29C284.275 405.994 274.883 402.68 263.09 404.129L249.819 411.471C243.583 413.28 225.819 404.928 222 400L220 400C217.864 402.949 214.802 407.114 210.921 407.667L194.715 402.455L174.439 398.945L163.986 391.818C159.758 389.473 153.893 387.89 151.279 383.481C149.031 379.691 151.742 376.816 151.742 373L150 360L148 360C148.001 365.703 146.587 378.773 148.843 383.482C151.348 388.71 157.631 390.917 162.399 393.405L174.439 401.272L193.83 404.455L212 410C214.028 422.986 228.065 410.5 216 407L220 402L222 402C224.985 407.729 233.955 409.822 240 410C236.566 416.541 234.958 424.755 234 432C219.328 432 205.369 430.945 191.093 427.723C182.64 425.815 175.223 422.032 166 422L166 424C183.502 424.194 199.238 433.884 217.001 433.999C221.724 434.03 230.712 435.763 234 432L236 432C239.989 436.565 254.132 434 260 434L256 458C245.11 452.334 227.49 453.468 216.518 458.843L206 466C205.99 463.225 206.513 459.316 204.106 457.318C201.239 454.937 195.452 456 192 456L162 456L162 458L204 458C204.01 460.949 203.386 466.428 207.251 467.353C211.188 468.294 214.164 462.312 217.325 460.843C226.644 456.51 245.349 453.446 254 460L256 460L256 458L258 458L270.241 463.799L288 480L288 482C278.286 487.06 274.594 507.1 271.308 516.729C265.276 534.401 265.234 550.589 263.946 568.985L262.129 594.911L266.054 633.961L267.721 646.906C264.864 659.657 246.307 655.099 238.518 658.843C229.269 663.289 226.092 676.21 218.236 682.197C210.491 688.099 191.532 689.381 182 690L182 692C200.449 691.455 221.169 687.909 230 670L232 670L241.089 677.329C242.511 680.659 238.428 684.803 242.573 687.143C246.778 689.516 253.416 686.03 258 686.001C273.347 685.902 295.703 685.075 309.427 677.143C312.996 675.08 311.263 670.476 312.858 667.344L320 662L322 662C327.905 673.266 355.726 666.409 362 658L364 658C366.459 661.296 370.042 661.883 374 662C374 667.683 373.412 677.998 378 682L378 684C362.266 691.759 356.23 716.916 347.285 730.764C341.296 740.036 334.862 743.689 332.474 755.271C330.856 763.114 338.949 770.33 335.157 778.674L318.897 798.478C316.893 803.293 323.834 808.741 320.664 813.431L313.264 817.878C308.271 823.044 304.207 836.972 304 844C295.27 845.272 292.242 855.718 284.674 859.157C276.903 862.688 263.268 856.913 256 854C259.385 860.498 265.785 859.031 271.83 860.455C293.95 865.668 311.384 837.777 314 818C317.807 817.885 320.158 817.513 322 814C325.13 815.711 330.924 818.487 332.248 812.946C333.995 805.635 320.06 809.758 320.965 800.015C321.653 792.611 332.837 786.415 336 780L338 780C341.068 784.141 346.912 787.322 352 788C349.088 801.058 344.393 815.352 337.29 826.765C330.47 837.723 319.768 848.729 318 862L320 862C323.066 848.479 332.909 838.386 339.751 826.765C345.262 817.403 347.834 807.711 351.308 797.579C353.202 792.054 355.38 776.499 360.533 773.447C364.856 770.886 375.116 779.349 380 780L370.264 810.166L374 832C363.401 832.036 360.617 840.722 357.599 849.87L344 900C349.482 897.126 349.249 888.591 350.258 883.089L366 834C369.744 833.987 374.68 834.448 375.717 829.815L372.313 812.925L374.46 800.171C377.164 789.692 386.583 780.634 388 770C393.823 769.224 404.454 764.753 408 760L410 760C414.847 769.817 430.702 778.813 439.522 785.223C467.246 805.369 499.663 816.156 532.911 822.258L562 828L563.871 843.961L560.639 858.764L568.776 868.478C572.554 873.746 576.59 882.727 577.74 889.089C579.587 899.307 574.305 911.653 574 922L576 922C576.684 911.458 581.164 899.651 579.871 889.089C579.164 883.318 571.557 874.893 573.103 869.236C575.758 859.525 585.843 866.713 589.161 861.431L593.599 846.729C597.646 834.401 605.404 818.345 602.455 805.83C600.634 798.104 601.601 793.279 592 792C591.99 788.906 592.409 786.104 590 784L590 782C605.051 774.578 607.058 751.446 600 738C603.971 737.416 605.416 735.971 606 732C613.425 732.482 623.086 737.54 630 734C631.63 745.195 644.632 757.966 652.333 765.667C663.511 776.845 672.599 794.768 687.616 800.945L708 804C708.859 810.447 714.096 819.085 720 822L720 824L718 824L718 826C723.545 828.885 729.901 828 736 828C736.032 837.326 748.27 852.582 758 854C758.274 863.278 765.982 870.548 765.963 880C765.946 888.075 757.469 896.966 754 904C760.22 900.933 760.256 896.893 762.843 891.325L767.722 883.816C772.109 864.732 752.772 849.934 741.671 838.329L736 828C742.885 815.403 726.03 816.092 731 826L720 826L722 824L722 822L708 804L708 802C712.26 799.897 715.269 791.022 720 791.02C723.958 791.018 731.873 799.673 735.036 802.219C742.932 808.576 751.064 815.128 757.612 823.04L761.314 832.125C764.854 836.741 772.617 841.841 778 844C775.62 839.432 767.109 832.745 762 832C761.941 814.828 735.069 799.691 722.964 789.782C719.637 787.059 710.315 783.006 709.135 778.75C707.802 773.942 718.134 764.653 720 760L722 760C726.697 769.514 743.396 781.875 754.167 783.735L768 782L766.897 791.522C768.982 796.517 775.09 799.127 778.964 802.379C792.387 813.645 810.291 824.348 826 832C820.91 821.692 803.68 816.913 794.475 810.794C786.936 805.783 774.853 799.95 769.854 792.255C767.602 788.788 771.726 784.324 768.107 781.318C764.146 778.029 759.326 782.164 755.075 781.686L736 774C734.776 765.599 725.123 763.312 720.71 756.768C714.519 747.586 714 734.965 714 724C724.214 722.513 734.363 711.12 742.478 705.223C767.441 687.082 784.61 661.105 800.71 635.235C807.195 624.816 818.363 610.29 820 598L837.816 598.509C846.061 601.15 857.231 614.993 864 602L866 602C869.723 606.261 877.861 601.703 882.985 602.054C894.551 602.846 904.421 612.468 916 614L916 612L885.829 600.26L866 602L862.965 590.015C863.304 586.363 869.622 583.87 866.667 579.86C863.988 576.224 856.763 574.181 852.8 572.2C840.884 566.243 829.153 555.497 815.964 554.036C807.58 553.106 796.379 549.508 796 562C783.273 552.782 767.832 525.691 748 536C747.419 532.012 745.6 529.777 742 528L742 526C748.418 521.211 748.051 510.009 754.564 505.309C766.686 496.562 794.17 499.03 802 484L804 484L804 486L806 486L826.329 476.982L835.175 467.486C837.588 462.975 837.399 457.148 841.764 453.803C848.016 449.013 859.127 450.53 864 444L866 444L866 446L868 446C871.447 441.127 871.999 437.969 872 432C886.823 432 892.361 423.005 905.289 418.728C914.264 415.76 928.485 416 938 416C938.924 422.935 943.065 427.076 950 428L950 434L952 434C951.804 427.538 948.286 424.837 942 424C940.431 412.224 931.106 413.36 921.83 415.545L905.289 416.46L886.8 427.4L872 432C859.403 425.115 860.092 441.97 870 437L868 444L866 444L866 442L864 442C860.688 444.99 849.846 450.362 845.254 448.883C841.651 447.724 835.744 435.937 837.407 432.479C841.635 423.69 858.884 416.729 867.2 412.6C871.174 410.626 875.839 410.122 878 406L880 406C884.204 410.761 898.48 397.252 904 396L904 394C897.049 394.926 886.068 407.771 880 404L878 404C873.23 410.1 861.994 412.271 855.235 416.249C842.473 423.762 830.426 440.729 816 444C814.914 436.543 807.633 430.458 804 424C823.444 421.409 837.56 404.443 840 386L849.004 389.738C863.766 389.994 875.194 370.899 885.036 362.383C891.547 356.751 899.88 354.355 904 346C887.087 354.34 877.152 373.01 861.486 382.727L849.004 387.462C845.418 387.336 842.716 382.385 839.26 385.883L832.727 403.486C826.364 413.744 802.214 427.716 790 427.742C784.195 427.755 770.86 426.163 768.509 419.815L758.946 381.615C751.097 362.209 735.261 342.44 722.777 325.745L699.666 298.333C696.428 295.054 688.75 287.765 688.537 282.996C687.86 267.825 703.897 269.003 709.143 259.432C711.498 255.134 708.911 250.363 708.911 246C708.911 240.395 710.245 233.327 712.456 228.145C716.722 218.146 729.157 211.821 734 202C726.44 205.728 714.791 219.099 710.825 226.514C704.421 238.486 709.842 247.986 692 248L688 240L686 240C672.673 252.153 655.319 262.727 645.206 277.732C641.523 283.197 636.129 293.873 644 298L644 300L642 304C619.122 304.078 609.545 324.411 598 340L596 340C592.599 333.104 581.477 326.582 580.332 318.921L581.982 303.015L578.054 272.985L577.74 248.171C576.037 239.16 569.742 227.418 560 226L556.537 216.996C556.036 205.269 565.168 188.287 548 186L551.853 173.075C550.609 157.827 541.427 138.154 551.8 123.76C557.9 115.297 573.922 117.779 578 110L576 110M594 120C598.223 128.564 614.769 136.77 624 138C625.084 146.133 635.624 158.325 644.145 159.668L658 156L658 154L644.145 157.362C633.453 155.195 630.885 143.366 624.14 137.26C617.06 130.852 602.548 124.215 594 120z"/>
        <path d="M554 220C549.738 223.229 543.17 222 538 222C538.166 227.631 544.622 235.496 542.883 240.745C541.039 246.307 523.04 246.877 518 248C519.233 257.32 517.634 274.793 507.471 280.557C504.017 282.517 497.406 278.906 493.83 278.259L461.001 276.001L435.83 281.545C418.584 285.654 402.672 289.23 386.386 296.582C374.789 301.816 350.051 305.103 350 320L348 320C347.967 310.331 341.86 308.881 337.273 301.486C334.017 296.237 332.067 288.084 332 282L318 280C320.444 286.957 318.092 295.445 310 296C311.781 309.461 319.514 330.003 325.823 341.985L336 358C339.509 358 343.569 358.782 346 356L348 356L350 362L360 362L360 364L352 364C352.001 373.192 354.14 386.321 359.273 394.241L370.6 404.568C372.62 407.886 371.969 414.203 372 418L348 427.08L334.385 421.054L314 416L314 420L312 420C310.879 412.374 301.4 413.121 295.285 411.29C284.266 407.991 273.995 404.025 262.171 406.26L249.819 413.471L240 412L236 432C241.793 432 256.915 429.285 260.681 434.573C264.206 439.52 258.75 452.33 258 458C272.623 458.949 276.676 471.832 287.76 478.722C292.385 481.597 300.734 480 306 480L306 482C301.085 482 292.975 480.442 288.568 482.857C280.278 487.401 276.336 507.558 273.599 515.87C263.235 547.339 263.724 581.331 266.054 613.961C266.759 623.827 271.835 637.205 269.722 646.907C265.638 665.659 234.586 652.253 232 670C242.137 672.299 243.183 677.05 242 686C256.3 685.951 273.713 684.302 287.83 681.741L310 676C310.006 668.489 311.423 662.587 320 662L320 658L322 658C324.126 672.461 355.97 664.082 362 656L364 656L375.142 663.344C377.886 668.74 375.008 677.645 380 682L380 684C364.249 691.767 358.231 716.914 349.285 730.764C343.296 740.036 335.651 744.055 334.313 756.13L338 780L354 786C355.179 767.839 368.882 769.958 380 780L382 780C388.378 768.641 398.811 760.991 412 758C413.446 767.839 432.719 777.843 440.255 783.781C466.41 804.389 500.902 814.384 532.911 820.258L564 826L565.871 843.961L562.639 858.764L570 868L572 868C577.172 860.859 580.019 860.945 588 862C589.049 845.833 598.858 831.235 601.74 815.829L600 796C591.158 793.995 593.201 788.537 588 784L588 782C599.249 776.453 609.239 749.565 598 740L598 738L604 736C606.563 726.198 620.812 733.049 628 734L628 726L630 726C630.035 736.315 642.779 760.365 654 762C654.955 768.557 661.5 772.285 665.617 777.036C676.592 789.705 680.942 798.792 698.985 800.054L706.764 801.361L718 790L718 788C713.208 784.606 707.843 778.852 702 778L702 776C711.562 775.71 713.281 765.207 720 760L720 758C714.534 752.006 708.114 732.147 713.314 724.568C716.573 719.818 724.799 716.529 729.522 713.29L754.964 694.218L769.782 675.745C784.126 657.77 796.479 641.088 807.001 620.4C811.285 611.976 818.717 603.629 820 594L836.907 596.278C845.173 598.077 853.494 611.257 862.117 602.74C865.762 599.139 860.582 594.141 860.965 590.015L866 580C840.968 574.323 825.39 549.895 798 556L796 568L794 568C793.606 555.005 773.196 538.885 761.014 537.947C757.113 537.646 752.987 534.584 750 538L748 538C746.276 533.7 744.258 530.103 740 528L740 526C746.05 521.486 746.981 511.538 751.785 505.75C756.632 499.912 776.503 494.487 784 494L784 490L786 492L788 492C792.298 488.118 799.212 487.352 802 482L804 482L804 484L806 484L824.241 476.727C832.064 471.656 832.959 464.852 836.825 457.311L841.462 449.986L836 436C828.291 436.234 822.135 443.654 816 448C814.812 439.086 806.105 434.176 804 426C792.53 426.339 779.562 433.629 769.055 423.602C765.286 420.005 764.854 413.051 763.759 408.166C761.406 397.659 759.4 385.483 754.182 376.014C741.923 353.767 726.215 332.574 710.218 313.036C703.274 304.554 690.862 295.033 686.897 284.689C682.703 273.744 699.409 261.948 708 260L708 248C698.074 248.293 693.783 252.279 688 242L686 242C673.298 253.583 655.969 263.854 646.71 278.475C642.284 285.463 637.938 297.634 650 298L650 300L644 300L642 314L640 314L640 306C619.037 306.619 608.637 327.643 598 342L596 342L578.848 320.675L579.982 308.985L578 288L554 288L554 286L578 286C577.961 274.632 577.861 259.396 575.74 248.171L570 232C563.465 230.323 559.189 225.669 556 220L554 220z"/>
        <path d="M542 244C546.542 255.855 542.772 270.285 534 280L534 282L536 282L536 284C529.197 289.935 532.998 302.602 533.871 310.039L536.46 340.711C539.905 353.751 549.782 364.151 548 378L521.87 387.416L501.015 384.018L476.804 389.031L457.961 386.054L436 388C434.813 379.092 421.976 365.615 427.279 356.518C431.513 349.253 454.516 338.178 462.996 338.537C468.957 338.789 494.349 357.812 497.721 343.811L498 336L508.657 335.486C512.097 334.204 513.496 329.411 515 326.4C522.549 311.288 510.993 297.3 510 282L508 282L515.941 315.014L510 334C499.333 334 496.001 334.694 496 346C489.408 346 482.639 345.399 476.439 342.946L463.855 336.332C458.907 335.552 452.263 339.669 448 341.8C436.273 347.663 421.988 352.138 413.8 363.04C408.144 370.572 415.683 381.89 415.981 390.004C416.542 405.216 412.727 415.924 408.13 430.13C405.839 437.212 401.5 446.591 393.6 448.816C388.296 450.311 376.511 445.048 371.289 443.272L350 428C356.263 440.702 376.454 449.6 390 450C389.028 454.285 384.624 465.124 380.656 467.142C376.036 469.491 368.065 468 363 468C345.678 468 328.846 464.176 312.167 459.545L298 454C298.831 441.866 311.607 433.3 312 420L310 420C309.182 432.604 297.661 440.59 296 452C282.577 444.462 279.228 432.059 262 432L262 434C266.471 434.049 274.688 434.758 278.125 437.879L285.75 448.776L308.804 460.581C323.963 467.378 344.612 470 361 470C366.053 470 382.65 467.023 386.14 469.933C401.781 482.974 387.138 501.853 382.406 515.275L377.54 549.829L370.149 562.145C368.067 567.676 368.735 574.838 364.736 579.467C359.094 585.997 335.41 586.651 330.84 578.671C324.819 568.158 326 549.801 326 538C337.814 536.426 356.085 508.676 336 506L337.866 495.093C335.828 479.948 316.61 482 306 482L306 484C316.789 484 327.126 481.917 334.2 491.76C339.842 499.611 329.608 508.083 344 510C343.892 519.615 335.227 524.79 334 534C323.252 535.432 323.852 542.967 324.005 551.996C324.194 563.184 328.199 572.851 330.902 583.235L335.819 601.981C341.245 611.444 356.234 606.673 364.91 608.26C374.072 609.936 381.153 616.451 388.478 621.286C399.396 628.49 410.039 629.402 411.687 645.075C412.641 654.151 403.165 661.255 402 670L380 680L380 682C394.147 680.115 411.552 664.785 412 650C415.601 652.614 424.84 660.895 425.717 665.093C426.893 670.72 422.315 677.147 420.71 682.425C415.395 699.906 407.229 715.37 397.285 730.764L388 742L386 742C381.649 731.149 370.241 717.631 358 716L358 718C372.589 721.308 374.71 736.118 386 742L386 744C372.268 750.771 363.68 755.225 358 770L367.764 755.803L380.96 750.201C397.979 737.237 409.13 716.929 418.195 697.999L427.54 670.711C428.667 666.445 426.78 660.362 432.189 658.515C439.931 655.87 459.06 663.095 464.942 668.402L472.348 677.617C481.979 686.234 496.418 687.466 506.746 694.728C514.899 700.461 520.828 710.374 532 712C532 719.774 529.328 744.048 518.921 745.667C507.113 747.504 492.335 738.042 480 738C478.669 728.011 467.038 718.427 460 712L458 712C450.638 722.142 445.596 711.618 436.439 714.728C422.368 719.508 412.413 744.01 412 758L414 758C414.81 745.547 424.358 734.414 426 722L439.075 716.314C446.899 715.438 452.768 724.597 458 714L460 714L464 716C464.806 721.529 469.374 724.436 472.982 728.347L479.875 738.686C487.525 744.574 503.521 744.024 512.715 746.709C520.181 748.889 534.012 753.336 541.427 749.142C544.419 747.45 545.141 742.021 546.131 739L555.224 720.478C561.425 711.796 568.542 707.681 576.14 700.741L584.145 692.456C608.071 682.232 626 703.494 626 726L628 726C628 719.692 628.005 712.332 625.157 706.518L608 688L627.856 682.643L640.475 691.29C651.655 698.371 661.728 705.106 670.218 715.745C675.846 722.797 680.968 734.754 688 740L688 742L668.475 750.71L654 760L654 762C661.505 760.906 668.482 752.637 675.614 749.418C679.32 747.746 683.468 747.393 686 744L688 744C692.925 756.289 688.7 769.521 702 776C700.223 772.4 697.988 770.581 694 770C694 761.909 696.634 748.498 688 744L688 742L690 742L690 740C676.827 725.416 668.176 703.906 649.986 693.818C643.816 690.396 623.705 681.9 622.965 673.985C621.469 657.984 640.161 650.111 650.764 643.75C662.909 636.463 668.011 624.935 677.874 615.878C685.999 608.417 698.246 607.046 704 596L706 596C711.656 602.646 728.506 606.497 731.468 616.185C732.714 620.263 729.144 623.493 727.405 626.804C723.061 635.076 715.239 644.703 714 654C699.714 654 691.344 657.785 680 666L680 668C687.606 676.424 676.48 681.988 678.259 691.83C681.102 707.554 697.785 718.3 712 724C706.277 713.015 688.318 712.454 682.843 700.675C680.873 696.438 679.024 688.727 680.51 684.184C682.478 678.169 689.815 673.832 682 668L682 666L702.17 656.455L714.125 654.686L721.206 642.475C728.791 631.062 742.818 610.234 741.941 596.036C741.435 587.854 727.141 580.016 721.671 574.329C712.501 564.795 697.982 538.854 700.265 525.089C701.962 514.853 716.829 506.513 726.167 504.478L750 506L750 504L727.075 502.147C719.37 502.81 710.124 509.662 704 514L703.478 495.601C705.775 489.714 712.137 487.303 716.329 482.999C730.321 468.634 754.625 454.237 776 454L782 490L784 490L778 454L800.911 455.87L816 450L816 448L799.964 453.853C793.67 454.372 783.099 448.165 778 454L776 454C771.598 448.962 758.27 455.826 753.196 458.196C743.534 462.71 732.529 464.738 723.745 471.224L713.652 482.982C709.076 487.271 703.008 489.082 702 496C693.375 495.905 689.618 489.11 682 488L674.728 470.711L668.182 446.014L654.728 424.711C651.448 414.792 653.907 401.392 644 394L644 392C652.807 387.657 660.513 372.108 671.986 372.97C676.407 373.302 679.498 380.798 682.334 383.667C687.301 388.69 697.259 395.376 699.49 402.184C702.635 411.783 697.798 426.51 702.858 435.427C705.297 439.725 709.353 436.138 712.764 437.103L719 443C721.482 433.579 708.677 435.696 704 436L702.054 414.985L701.157 400.518C697.357 392.614 687.237 387.09 681.782 380.255C676.52 373.661 668.286 361.112 658.131 362.314C650.518 363.216 642.602 370.007 635.565 372.951C623.764 377.886 613.432 378.641 601.089 380.129C591.85 381.242 583.391 383.329 576.388 374.96C561.385 357.028 575.62 339.865 578 322L576 322C573.873 331.381 566.519 339.932 566.519 350L572 374C564.115 369.572 558.679 368.066 550 370L538.46 339.829C533.781 321.511 535.937 302.285 536 284L554 286L554 284L536 282C540.798 273.456 555.034 250.833 542 244M546 264L546 272L549 272L549 264L546 264M551 266L553 272L556 266L554 270L551 266M559.564 267.171C557.573 268.471 559.241 272.261 561.436 270.829C563.427 269.529 561.759 265.739 559.564 267.171M565 266L565 272L569 267L565 266M570 266L571 274L575 266L573 270L570 266z"/>
        <path d="M559 267L559 271L562 271L562 267L559 267z"/>
        <path d="M567.148 276.086C562.106 278.592 565.879 286.385 570.852 283.914C575.894 281.407 572.121 273.615 567.148 276.086z"/>
        <path d="M567.318 277.086C563.56 279.256 566.924 285.083 570.682 282.914C574.44 280.744 571.076 274.917 567.318 277.086z"/>
        <path d="M568 278L567 279L567 281L568 282L570 282L571 281L571 279L570 278L568 278M676 304L650 300L650 302C659.198 302.102 677.709 314.426 677.995 297.996L678 290L686 288L686 286C675.147 287.446 676 294.983 676 304M551 298L551 307L552 302L555 302L555 307C556.543 302.935 553.699 300.786 551 298M565 298L565 307C566.256 304.006 566.256 300.994 565 298M568 298L568 307L573 307L573 301L569 304L568 298M549 306C543.982 304.656 542.597 300.443 549 301C542.588 296.415 539.926 308.022 549 306M559 301L562 302L558 304L558 306L563 307C562.737 303.59 562.321 302.099 559 301z"/>
        <path d="M559 304L559 306L562 306L562 304L559 304z"/>
        <path d="M214 312C206.643 318.645 197.262 319.512 189.236 324.251L174.255 338.218C170.675 341.059 166.214 341.751 164 346C175.065 341.565 180.191 331.912 190.015 326.251C197.843 321.739 211.292 321.037 216 312L214 312M642 314C641.468 322.177 632.6 334.207 623.869 335.411L606 336L606 338L624.725 337.522C633.943 335.407 643.73 323.132 644 314L642 314M350 320C350.96 326.53 358.182 327.828 364 328C363.322 337.908 352.302 347.275 348 356C355.483 352.31 356.749 344.745 361.224 338.478C363.2 335.71 366.796 333.232 365.468 329.329C363.992 324.994 355.848 324.114 352 324L352 320L350 320z"/>
        <path d="M420 358C408.31 374.143 422.33 391.074 417.54 409.829C415.047 419.589 410.528 434.305 404.218 442.255C398.771 449.118 389.449 452.435 386.51 461.324C383.632 470.029 396.458 478.802 395.416 487.87C394.244 498.062 388.264 505.252 384.71 514.435C380.401 525.568 380 536.223 380 548L405 546.009C421.597 546.009 437.996 547.63 454.715 543.545L476 532L487.545 500.714C490.772 487.509 489.981 477.093 500 466L500 464C488.264 451.002 485.271 429.038 479.495 413.325C476.843 406.113 472.095 402.566 472 394L456 390.108C449.407 390.108 441.997 394.464 435.343 391.143C426.966 386.961 422.093 366.374 422 358L420 358z"/>
        <path d="M360 364L360 366C367.08 366.079 381.25 378.156 378.897 386.764C377.146 393.167 370.234 394.296 370 402L372 402C372.503 394.654 379.933 393.038 381.361 386.764C383.586 376.988 368.075 364.028 360 364z"/>
        <path d="M574 374L572 374L572 376L570 376C567.414 372.534 558.737 368.854 554.515 370.848L547.472 378.741C542.606 382.85 536.757 385.481 530.715 387.29C520.263 390.42 513.295 386.002 503 386.002C493.248 386.002 483.445 389.895 474 392L483.49 412.184L487.419 429.196C492.764 441.118 501.103 453.225 504 466L522.171 475.74C531.885 477.576 546.01 479.596 555.829 477.74L569 472.519C575.455 472.471 585.446 479.637 591.522 477.103C603.054 472.292 611.938 455.565 621.745 447.782C630.853 440.554 642.121 436.858 648.722 426.24C655.895 414.702 641.83 404.355 640.593 393.87C639.518 384.756 660.49 371.703 668 370C661.83 358.156 647.576 369.018 639.6 373C622.557 381.51 587.292 392.352 574 374z"/>
        <path d="M145 396L147 404L149 404L151 396L148 402L145 396M157 403L153 403L157 401C153.571 395.819 150.118 404.053 157 403M159 398L159 404L163 399L159 398z"/>
        <path d="M153 399L156 400L153 399z"/>
        <path d="M900 403L900 412C907.037 410.825 903.319 406.426 900 403M913 403L914 404L913 403M920 403C917.805 407.022 914.143 410.856 921 412L920 403M923 403L924 404L923 403M893.303 405.176C890.023 406.811 892.231 412.552 895.697 410.824C898.977 409.189 896.769 403.448 893.303 405.176z"/>
        <path d="M893.564 406.171C891.573 407.471 893.241 411.261 895.436 409.829C897.427 408.529 895.759 404.739 893.564 406.171z"/>
        <path d="M907 407L907 409L910 410L907 411L911 411L911 409L908 408L911 407L907 407M913 406L913 412C913.951 409.715 913.951 408.285 913 406M923 406L923 412C923.951 409.715 923.951 408.285 923 406M927 406L930 407L926 409L926 411L931 412C930.737 408.59 930.321 407.099 927 406M933 406L933 412L934 407L937 407L937 412C938.419 408.264 936.686 406.615 933 406z"/>
        <path d="M901 407L901 411L904 411L904 407L901 407M917 407L917 411L920 411L920 407L917 407z"/>
        <path d="M176 408L177 409L176 408M179 408L179 417C180.256 414.006 180.256 410.994 179 408M182 408L182 417C183.256 414.006 183.256 410.994 182 408M185 408L186 409L185 408z"/>
        <path d="M215.318 409.086C211.56 411.256 214.924 417.083 218.682 414.914C222.44 412.744 219.076 406.917 215.318 409.086M927 409L927 411L930 411L930 409L927 409z"/>
        <path d="M216 410L215 411L215 413L216 414L218 414L219 413L219 411L218 410L216 410M165 411L165 417L166 412L169 412L169 417L170 412L173 412L173 417C175.247 411.086 169.299 411.172 165 411M176 411L176 417C176.951 414.715 176.951 413.285 176 411M185 411L185 417C185.951 414.715 185.951 413.285 185 411M189.564 412.171C187.573 413.471 189.241 417.261 191.436 415.829C193.427 414.529 191.759 410.739 189.564 412.171M195 411L195 417L196 412L199 412L199 417C200.419 413.264 198.686 411.615 195 411z"/>
        <path d="M189 412L189 416L192 416L192 412L189 412z"/>
        <path d="M265 415L266 416L265 415M302.148 416.086C297.106 418.592 300.879 426.385 305.852 423.914C310.894 421.407 307.121 413.615 302.148 416.086M258 423C252.982 421.656 251.597 417.443 258 418C251.588 413.415 248.926 425.022 258 423z"/>
        <path d="M302.318 417.086C298.56 419.256 301.924 425.083 305.682 422.914C309.44 420.744 306.076 414.917 302.318 417.086z"/>
        <path d="M260 418L260 424L264 419L260 418M265 418L265 424C265.951 421.715 265.951 420.285 265 418M268 418L268 424L269 419L272 419L272 424L273 419L276 419L276 424C278.247 418.086 272.299 418.172 268 418M279 419L279 421L282 422L279 423L283 423L283 421L280 420L283 419L279 419M286.564 419.171C284.573 420.471 286.241 424.261 288.436 422.829C290.427 421.529 288.759 417.739 286.564 419.171M292 418L292 424L293 419L296 419L296 424C297.419 420.264 295.686 418.615 292 418M303 418L302 419L302 421L303 422L305 422L306 421L306 419L305 418L303 418z"/>
        <path d="M286 419L286 423L289 423L289 419L286 419z"/>
        <path d="M720 444L720 446L736.674 447.49C748.079 443.555 756.309 429.01 768 426L768 424C756.587 425.663 747.151 440.424 736.674 445.157C731.807 447.355 725.208 444.018 720 444z"/>
        <path d="M652 428C644.154 438.833 633.994 443.662 623.745 451.224L604.333 470.333C596.311 478.355 588.519 487.8 588.519 500L594.451 522.715C596.961 532.197 603.091 536.093 607.75 544.014C613.073 553.064 623.136 566.568 608 570L608 572C625.386 575.943 640.25 589.854 654.478 599.286L676 612L678 612C681.27 609.047 685.707 606.974 690 606L694.334 599.001C710.294 582.863 722.066 605.129 736 612C737.327 606.051 742.137 598.648 739.157 592.519L725 579.667C713.764 568.431 703.246 551.846 700.075 536C698.502 528.144 696.693 521.663 704 516L704 514L700.682 499.893C695.574 493.66 684.384 493.389 679.819 485.195L672.26 468.911L671.272 456.439C667.77 446.096 660.228 436.792 654 428L652 428M864.318 431.086C860.56 433.256 863.924 439.083 867.682 436.914C871.44 434.744 868.076 428.917 864.318 431.086z"/>
        <path d="M865 432L864 433L864 435L865 436L867 436L868 435L868 433L867 432L865 432M186 441L186 449L187 443L189 447L191 443L192 449L193 441L190 445L186 441M196 443L199 444L195 446L195 448L200 449C199.737 445.59 199.321 444.099 196 443M202 443L202 449L206 444L202 443M208.564 444.171C206.573 445.471 208.241 449.261 210.436 447.829C212.427 446.529 210.759 442.739 208.564 444.171M215.564 444.171C213.573 445.471 215.241 449.261 217.436 447.829C219.427 446.529 217.759 442.739 215.564 444.171M221 443L221 449L222 444L225 444L225 449C226.419 445.264 224.686 443.615 221 443M314 443L315 444L314 443M354 443L355 444L354 443z"/>
        <path d="M208 444L208 448L211 448L211 444L208 444M215 444L215 448L218 448L218 444L215 444z"/>
        <path d="M308 444L308 452L312 448L309 445L313 445L308 444M333 444L333 452L338 452L334 451L334 448L338 448L334 447L334 445L338 445L333 444z"/>
        <path d="M196 446L196 448L199 448L199 446L196 446z"/>
        <path d="M314 446L314 452C314.951 449.715 314.951 448.285 314 446M317 446L317 452L321 447L317 446M327 451L323 451L327 449C323.571 443.819 320.118 452.053 327 451M340 446L340 452L341 447L344 447L344 452C345.419 448.264 343.686 446.615 340 446M351 452L348 453C352.242 453.953 351.963 449.15 352 446C347.43 446.763 346.07 450.361 351 452M354 446L354 452C354.951 449.715 354.951 448.285 354 446M357 446L357 452L358 447L361 447L361 452C362.419 448.264 360.686 446.615 357 446M369 451L365 451L369 449C365.571 443.819 362.118 452.053 369 451z"/>
        <path d="M323 447L326 448L323 447M348 447L348 451L351 451L351 447L348 447M365 447L368 448L365 447z"/>
        <path d="M946 456L937.29 488.725C934.387 496.347 928.82 504.835 928.147 513.075C927.733 518.142 931.81 521.934 936 524L930.332 514.921C929.261 507.759 936.211 496.848 938.951 490.386C943.208 480.341 946.578 466.749 948 456L946 456M798 463L798 472C805.037 470.825 801.319 466.426 798 463M791 464L791 472L796 472L792 471L792 468L796 468L792 467L792 465L796 465L791 464M806.564 467.171C804.573 468.471 806.241 472.261 808.436 470.829C810.426 469.529 808.759 465.739 806.564 467.171M812 466L812 472L813 467L816 467L816 472C817.419 468.264 815.686 466.615 812 466M819 466L820 474L824 466L822 470L819 466z"/>
        <path d="M799 467L799 471L802 471L802 467L799 467M806 467L806 471L809 471L809 467L806 467M464 544C466.495 561.125 490.536 568.431 502.255 577.782C507.489 581.958 513.151 589.002 520 590C520.84 596.302 524.911 602.5 528 608L530 608L544.255 600.776C557.23 591.202 569.357 575.998 585.289 570.728C591.458 568.688 599.554 570 606 570L606 566L614 564C609.227 552.091 601.331 545.071 594.714 534.764C589.739 527.014 585.286 510.132 584.313 500.925L588 480L569 476.258L554.911 481.74C545.019 483.549 531.977 481.059 522.039 479.871C516.364 479.193 507.062 467.508 501.86 471.333C492.054 478.543 493.586 490.815 491.74 500.911C489.073 515.494 479.826 539.925 464 544z"/>
        <path d="M788.148 478.086C783.106 480.592 786.879 488.385 791.852 485.914C796.894 483.407 793.121 475.615 788.148 478.086z"/>
        <path d="M788.318 479.086C784.56 481.256 787.924 487.083 791.682 484.914C795.44 482.744 792.076 476.917 788.318 479.086z"/>
        <path d="M789 480L788 481L788 483L789 484L791 484L792 483L792 481L791 480L789 480M348 504C339.77 506.877 339.77 497.123 348 500C338.225 490.181 338.225 513.819 348 504M343 500L342 501L342 503L343 504L345 504L346 503L346 501L345 500L343 500M750 538L750.863 555.431L758.386 559.418C770.256 564.747 775.99 562.678 788 560L788 558L772.036 561.853L752 556C752.397 549.88 757.179 541.764 750 538z"/>
        <path d="M370 584L355.961 587.871L332 586L338 604C346.256 604.536 358.936 604.175 366.711 606.728C375.574 609.639 381.572 615.219 389.236 619.749C397.088 624.39 404.424 625.736 410.2 633.76L414.843 649.482L420 658L435 656.109C444.043 656.048 454.749 660.749 462.689 664.825L473.054 676.214C480.264 682.488 494.587 688.755 504 690C509.983 663.16 523.176 635.919 524 608L521 608L515 592C508.875 590.428 504.994 585.03 500.279 581.149L477.236 567.286L467 560C466.528 555.743 465.256 553.191 461 552C459.471 541.593 431.842 550.946 423.961 551.871C410.816 553.414 396.375 547.658 383.343 552.514C373.659 556.122 370.258 575.276 370 584z"/>
        <path d="M796 568C796.167 573.656 795.291 588.621 800.519 591.157L811.999 590.262L820 594C814.737 583.341 807.253 593.569 800.591 588.685C798.408 587.084 798.235 571.619 798 568L796 568z"/>
        <path d="M550 604C544.165 604.777 531.038 609.015 527.314 613.875C520.803 622.372 521.715 642.563 519.741 652.911L512.46 669.289C510.851 675.377 512 682.733 508 688L508 690C511.657 692.649 514.853 695.546 516 700L524.4 703.4C545.065 713.733 532.474 731.847 526 748L542 748C543.064 731.605 559.287 704.288 576 700C580.741 681.585 608.691 691.162 621.431 683.161C626.098 680.23 620.736 676.816 620.988 673.192C621.321 668.416 624.478 662.307 627.224 658.478C638.606 642.607 673.295 637.251 674 614C645.22 606.615 621.078 565.512 587.289 574.46C580.644 576.22 573.854 582.372 568.268 586.269C561.728 590.831 551.274 595.256 550 604M947.318 587.086C943.56 589.256 946.924 595.083 950.682 592.914C954.44 590.744 951.076 584.917 947.318 587.086z"/>
        <path d="M948 588L947 589L947 591L948 592L950 592L951 591L951 589L950 588L948 588M282 650L270 650L270 652L281.432 651.143C287.851 647.627 287.027 642.1 296 642C296.314 652.336 307.879 655.219 308 666L310 666C309.969 656.837 304.749 655.001 299.799 648.241L295.427 640.858C289.219 637.356 282.81 644.442 282 650M322 658L324 658L328 648L347.819 644.529C354.448 646.452 355.039 654.977 362 656L362 654L358 654C355.191 634.723 324.251 642.541 322 658M656 661L656 670L657 665L660 665L660 670C661.543 665.935 658.699 663.786 656 661M663 661L664 662L663 661M628 663L628 665L633 669L628 668C630.271 669.68 631.242 669.657 634 669L634 667L629 663L634 664C631.729 662.32 630.758 662.343 628 663M636 664C636.3 667.864 637.089 669.348 641 670L641 664L640 669L637 669L636 664M643 664L643 670L644 665L647 665L647 670C648.419 666.264 646.686 664.615 643 664M650 665L650 667L653 668L650 669L654 669L654 667L651 666L654 665L650 665M663 664L663 670C663.951 667.715 663.951 666.285 663 664M666 664L666 670L667 665L670 665L670 670C671.419 666.264 669.686 664.615 666 664M678 669L674 669L678 667C674.571 661.819 671.118 670.053 678 669z"/>
        <path d="M674 665L677 666L674 665z"/>
        <path d="M674.148 672.086C669.106 674.592 672.879 682.385 677.852 679.914C682.894 677.407 679.121 669.615 674.148 672.086z"/>
        <path d="M674.318 673.086C670.56 675.256 673.924 681.083 677.682 678.914C681.44 676.744 678.076 670.917 674.318 673.086z"/>
        <path d="M675 674L674 675L674 677L675 678L677 678L678 677L678 675L677 674L675 674z"/>
        <path d="M168.318 723.086C164.56 725.256 167.924 731.083 171.682 728.914C175.44 726.744 172.076 720.917 168.318 723.086z"/>
        <path d="M648 722L648 731C649.256 728.006 649.256 724.994 648 722M658 722L658 731L659 726L662 726L662 731C663.543 726.935 660.699 724.786 658 722M633 724L633 726L638 730L633 729C635.271 730.68 636.242 730.657 639 730L639 728L634 724L639 725C636.729 723.32 635.758 723.343 633 724M169 724L168 725L168 727L169 728L171 728L172 727L172 725L171 724L169 724M641 725C641.3 728.864 642.089 730.348 646 731L646 725L645 730L642 730L641 725M651 725L651 733C655.066 730.218 657.488 726.083 651 725M665 725C665.3 728.864 666.089 730.348 670 731L670 725L669 730L666 730L665 725M672 725L672 731L676 726L672 725z"/>
        <path d="M652 726L652 730L655 730L655 726L652 726z"/>
        <path d="M596 740L581.318 747.893C573.374 757.586 583.785 773.395 586 782L588 782L582.278 770.907L582 748C588.253 747.815 595.076 745.922 598 740L596 740M661.148 761.086C656.106 763.592 659.879 771.385 664.852 768.914C669.894 766.407 666.121 758.615 661.148 761.086z"/>
        <path d="M661.318 762.086C657.56 764.256 660.924 770.083 664.682 767.914C668.44 765.744 665.076 759.917 661.318 762.086z"/>
        <path d="M662 763L661 764L661 766L662 767L664 767L665 766L665 764L664 763L662 763M682 768L682 777C683.256 774.006 683.256 770.994 682 768M689 768C686.805 772.022 683.143 775.856 690 777L689 768M670 773L672 776C666.897 774.435 667.7 770.539 673 771C669.392 767.416 663.497 771.816 667.333 775.667C670.303 778.646 675.346 774.151 670 773M676.564 772.171C674.573 773.471 676.241 777.262 678.436 775.829C680.427 774.529 678.759 770.739 676.564 772.171z"/>
        <path d="M676 772L676 776L679 776L679 772L676 772M686 772L686 776L689 776L689 772L686 772z"/>
        <path d="M222 774L222 776L230 776C232.96 798.372 241.132 818.157 246 840L248 840L236.455 803.83L232.945 779.616C230.742 774.313 227.229 774.018 222 774M728 784L728 792L733 792L729 791L728 784M739 791L735 791L739 789C735.571 783.819 732.118 792.053 739 791M741 786L741 792L742 787L745 787L745 792L746 787L749 787L749 792C751.247 786.086 745.299 786.172 741 786M753.564 787.171C751.573 788.471 753.241 792.261 755.436 790.829C757.427 789.529 755.759 785.739 753.564 787.171M759 786L759 792L760 787L763 787L763 792C764.419 788.264 762.686 786.615 759 786z"/>
        <path d="M735 787L738 788L735 787M753 787L753 791L756 791L756 787L753 787z"/>
        <path d="M564 826L566 826L567.686 816.131L562 800L570.765 801.362C577.876 799.794 581.91 794.09 590 794L590 792C581.801 792.028 577.984 797.025 570.765 798.902C567.265 799.812 562.325 796.093 560.532 801.329C558.897 806.107 564.096 810.912 565.218 815.275L564 826z"/>
        <path d="M326.318 809.086C322.56 811.256 325.924 817.083 329.682 814.914C333.44 812.744 330.076 806.917 326.318 809.086z"/>
        <path d="M327 810L326 811L326 813L327 814L329 814L330 813L330 811L329 810L327 810z"/>
        <path d="M732.318 819.086C728.56 821.256 731.924 827.083 735.682 824.914C739.44 822.744 736.076 816.917 732.318 819.086z"/>
        <path d="M733 820L732 821L732 823L733 824L735 824L736 823L736 821L735 820L733 820M740 829L743 830L743 837L747 830L740 829M313 832L313 834L318 838L313 837C315.271 838.68 316.242 838.657 319 838L319 836L314 832L319 833C316.729 831.32 315.758 831.343 313 832M748.564 832.171C746.573 833.471 748.241 837.261 750.436 835.829C752.427 834.529 750.759 830.739 748.564 832.171M754 831L754 839C758.066 836.218 760.488 832.083 754 831z"/>
        <path d="M748 832L748 836L751 836L751 832L748 832M755 832L755 836L758 836L758 832L755 832z"/>
        <path d="M322 833L325 834L321 836L321 838L326 839C325.737 835.59 325.321 834.099 322 833z"/>
        <path d="M322 836L322 838L325 838L325 836L322 836z"/>
        <path d="M758 844L761 845L757 847L757 849L762 850C761.737 846.59 761.321 845.099 758 844M764 844L767 845L764 850L768 850L765 849L768 844L764 844M305 846L305 854C309.066 851.218 311.488 847.083 305 846M312 846L312 854C316.066 851.218 318.488 847.083 312 846z"/>
        <path d="M306 847L306 851L309 851L309 847L306 847M313 847L313 851L316 851L316 847L313 847M758 847L758 849L761 849L761 847L758 847z"/>
        <path d="M297 856L297 865L298 860L301 860L301 865C302.543 860.935 299.699 858.786 297 856M304 856L305 857L304 856M304 859L304 865C304.951 862.715 304.951 861.285 304 859M289 872L289 878L293 873L289 872M299 877L295 877L299 875C295.571 869.819 292.118 878.053 299 877z"/>
        <path d="M295 873L298 874L295 873z"/>
        <path d="M666 912L668 912C669.977 904.44 677.635 906 684 906L704 909.892L736 908L736 906C724.131 903.355 715.591 907.768 704 907.742L681 904C674.105 904 667.213 903.673 666 912z"/>
        <path d="M606.318 943.086C602.56 945.256 605.924 951.083 609.682 948.914C613.44 946.744 610.076 940.917 606.318 943.086z"/>
        <path d="M607 944L606 945L606 947L607 948L609 948L610 947L610 945L609 944L607 944M571 986L571 995C572.256 992.006 572.256 988.994 571 986M587 986L587 995L588 990L591 990L591 995C592.543 990.935 589.699 988.786 587 986M594 986L595 987L594 986M555 987L555 995L556 989L558 993L560 989L561 995L562 987L559 991L555 987M597 987C596.635 990.633 596.815 992.986 600 995C598.897 992.754 598.678 992.092 600 990L597 987M565 989L568 990L564 992L564 994L569 995C568.737 991.59 568.321 990.099 565 989M575 989L578 990L574 992L574 994L579 995C578.737 991.59 578.321 990.099 575 989M586 994L582 994L582 990L586 991C581.423 987.878 579.909 994.932 586 994M594 989L594 995C594.951 992.715 594.951 991.285 594 989M606 994L602 994L606 992C602.571 986.819 599.118 995.053 606 994z"/>
        <path d="M602 990L605 991L602 990M565 992L565 994L568 994L568 992L565 992M575 992L575 994L578 994L578 992L575 992z"/>
    </g>
</svg>
